<svg width="73" height="70" viewBox="0 0 73 70" fill="none" xmlns="http://www.w3.org/2000/svg">
<linearGradient id="Gradient1" x1="0" x2="0.5" y1="0" y2="1">
        <stop offset="0%" stop-color="white" stop-opacity="0"/>
        <stop offset="50%" stop-color="white" stop-opacity="0">
            <animate class="anim-offset" attributeName="offset" begin="click" values="1;0.5;0" dur="0.7s" repeatCount="1"/>
            <animate class="anim-opacity" attributeName="stop-opacity" begin="click" values="0;0.4;0.7;0.4;0" dur="0.7s" repeatCount="1"/>
        </stop>
        <stop offset="100%" stop-color="white" stop-opacity="0"/>
</linearGradient>
<path d="M1 29.564C1 23.1037 1 16.6429 1 10.1817C1 9.56403 1 8.94641 1 8.32887C1 6.90095 1.34141 5.55674 2.0379 4.31593C3.26557 2.12687 5.11189 0.755962 7.53964 0.187824C8.09597 0.060235 8.66493 -0.0027727 9.23545 2.83962e-05C22.6506 0.00123511 36.0658 0.00161221 49.4809 0.00115969C49.7656 0.00115969 49.7467 -0.0268965 49.7467 0.260906C49.7467 5.621 49.7467 10.9811 49.7467 16.3412C49.7467 16.6353 49.7674 16.6095 49.4657 16.6095H23.6839C21.7133 16.6095 19.7425 16.6095 17.7717 16.6095C17.4323 16.6095 17.4666 16.5699 17.4687 16.917C17.472 17.4987 17.4238 18.0791 17.4382 18.661C17.4471 19.0158 17.4397 19.371 17.4397 19.726C17.4397 19.7756 17.4382 19.8256 17.4408 19.8751C17.4498 20.0453 17.468 20.0618 17.6427 20.0643C17.706 20.0643 17.7695 20.0643 17.8327 20.0643C25.202 20.0643 32.5713 20.0643 39.9404 20.0643C40.313 20.0643 40.2699 20.0109 40.2702 20.3869C40.271 25.7045 40.271 31.022 40.2702 36.3396C40.2702 36.7181 40.3056 36.6717 39.9462 36.6717C32.5699 36.6717 25.1937 36.6722 17.8175 36.6731C17.4155 36.6731 17.4673 36.6168 17.4673 37.0182C17.466 41.7394 17.466 46.4607 17.4673 51.182C17.4673 51.2671 17.4648 51.3522 17.461 51.4372C17.4592 51.4784 17.4305 51.4997 17.3937 51.5065C17.3659 51.5105 17.3378 51.5124 17.3096 51.5121C17.2533 51.5133 17.1975 51.5121 17.1407 51.5121H1.3266C1.24921 51.5121 1.1716 51.5121 1.09444 51.5078C1.03028 51.504 1.00897 51.4811 1.00471 51.4142C1 51.3451 1 51.2741 1 51.2026C1 49.6052 1 48.0078 1 46.4104V29.564Z" fill="#333333"/>
<path d="M70.369 25.8149C70.369 34.2921 70.369 42.7687 70.369 51.2449C70.369 51.337 70.369 51.4295 70.3638 51.5214C70.3607 51.5816 70.3309 51.6092 70.2694 51.6132C70.2079 51.6173 70.1429 51.6169 70.0796 51.6169C67.4473 51.6169 64.8148 51.6302 62.1827 51.6132C60.0391 51.5994 58.1614 50.8573 56.5793 49.3959C55.2558 48.1741 54.4286 46.6595 54.0641 44.8888C53.9578 44.3669 53.9052 43.8353 53.9071 43.3025C53.9071 42.3655 53.9169 41.4282 53.9039 40.4914C53.8929 39.6894 53.892 38.8875 53.8911 38.0854C53.8911 37.6736 53.8954 37.262 53.8963 36.8502C53.8963 36.571 53.9041 36.5948 53.6453 36.5948C50.7947 36.5948 47.9442 36.5948 45.0938 36.5948H44.9249C44.718 36.5948 44.7207 36.6007 44.7207 36.3792C44.7207 35.8111 44.7207 35.2431 44.7207 34.6752C44.7207 29.8903 44.7207 25.1053 44.7207 20.3204C44.7207 19.945 44.6759 19.9871 45.0426 19.9871C47.886 19.9859 50.7295 19.9859 53.573 19.9871C53.6363 19.9871 53.6998 19.9885 53.763 19.9871C53.8907 19.983 53.901 19.9724 53.9055 19.8353C53.9079 19.7572 53.9055 19.6792 53.9055 19.6011V0.409081C53.9055 0.331021 53.9044 0.252735 53.9055 0.174902C53.9095 0.0108636 53.9153 0.00520707 54.0692 0.00158691C54.1044 0.00158691 54.1397 0.00158691 54.1749 0.00158691H70.0953C70.1516 0.00158691 70.2075 0.00158691 70.2642 0.00362325C70.3405 0.00792219 70.3605 0.0262492 70.3643 0.10906C70.3683 0.201148 70.3674 0.293462 70.3674 0.385776C70.3674 7.62005 70.3674 14.8543 70.3674 22.0886L70.369 25.8149Z" fill="#333333"/>
<path d="M53.8591 60.1851C53.8591 58.0709 53.8591 55.9568 53.8591 53.8426C53.8591 53.722 53.862 53.6014 53.8515 53.4806C53.8446 53.4023 53.8387 53.3222 53.7503 53.2864C53.7153 53.2851 53.6801 53.2821 53.6449 53.2821C51.5546 53.2821 49.4642 53.2821 47.3738 53.2821C47.1389 53.2821 47.1387 53.284 47.0651 53.5116C46.5848 54.9963 46.1048 56.481 45.625 57.9657C44.9934 59.9158 44.3603 61.8654 43.726 63.8145C43.6973 63.9023 43.7083 64.0161 43.6037 64.0693C43.5364 63.9998 43.5261 63.9044 43.4983 63.8186C42.9721 62.1998 42.4472 60.5804 41.9236 58.9606C41.3424 57.1656 40.7615 55.3706 40.1809 53.5756C40.0789 53.2613 40.1157 53.2815 39.7917 53.2815C37.7788 53.2815 35.7658 53.2815 33.7528 53.2815C33.6826 53.2815 33.6121 53.2839 33.5421 53.2892C33.5297 53.2891 33.5174 53.2915 33.5058 53.2962C33.4943 53.301 33.4838 53.308 33.475 53.3168C33.4662 53.3257 33.4592 53.3362 33.4544 53.3478C33.4497 53.3594 33.4472 53.3719 33.4473 53.3844C33.4419 53.4693 33.4401 53.5546 33.4401 53.6396C33.4401 55.876 33.4401 58.1123 33.4401 60.3487C33.4401 60.4901 33.4358 60.6315 33.4338 60.7729C33.3961 60.508 33.3598 60.2444 33.3216 59.981C33.1696 58.9029 32.8528 57.8779 32.3463 56.9145C32.0514 56.3536 31.7034 55.8285 31.2607 55.3759C30.4641 54.5594 29.5207 53.9901 28.4251 53.679C27.611 53.4495 26.7724 53.3204 25.9276 53.2944C25.1465 53.2672 24.3657 53.2656 23.5887 53.3769C22.9808 53.4643 22.3843 53.5971 21.8061 53.8068C20.8231 54.1641 19.9517 54.7028 19.2381 55.4746C18.4898 56.2839 17.942 57.2222 17.5735 58.2657C17.551 58.3307 17.5461 58.4056 17.4862 58.4535C17.39 58.4277 17.3987 58.3334 17.3741 58.2669C17.2268 57.8523 17.0509 57.4488 16.8476 57.0591C16.545 56.4858 16.1856 55.9515 15.7332 55.4882C15.1209 54.8564 14.3865 54.3582 13.5755 54.0243C12.6334 53.6371 11.6464 53.4627 10.637 53.3806C10.1595 53.3416 9.68145 53.3333 9.20254 53.3371C8.56905 53.3416 7.93699 53.3984 7.3127 53.507C6.4603 53.6559 5.6447 53.913 4.87844 54.3216C4.27213 54.6414 3.71983 55.0561 3.24208 55.5502C2.64338 56.1731 2.18623 56.8962 1.81073 57.672C1.51912 58.2757 1.34707 58.9205 1.21787 59.5769C1.11895 60.079 1.06848 60.5867 1.03102 61.0969C0.978086 61.848 1.00561 62.6026 1.11311 63.3478C1.18445 63.8548 1.30602 64.351 1.44532 64.8429C1.84124 66.2407 2.61871 67.3795 3.74902 68.275C4.37531 68.7712 5.07786 69.1264 5.82639 69.3927C6.85196 69.7575 7.9152 69.9073 8.99662 69.9425C9.43964 69.9573 9.88266 69.9448 10.3259 69.917C10.8457 69.8868 11.3632 69.8246 11.8755 69.731C12.5287 69.6079 13.161 69.4176 13.757 69.116C14.5134 68.7332 15.1785 68.2273 15.7651 67.6132C16.4261 66.9206 16.9445 66.1028 17.2904 65.2069C17.3214 65.1277 17.3501 65.0485 17.3819 64.9687C17.3945 64.9377 17.3987 64.8913 17.4449 64.8963C17.4748 64.8994 17.4781 64.9365 17.4867 64.9626C17.4934 64.9829 17.4999 65.0031 17.5055 65.0237C17.6816 65.6429 17.9541 66.2174 18.2998 66.757C18.824 67.5738 19.4887 68.2472 20.3083 68.764C21.424 69.4683 22.6535 69.8158 23.9516 69.9509C24.5203 70.0102 25.09 70.0057 25.66 69.9973C26.2511 69.9862 26.8405 69.9277 27.4224 69.8224C28.1402 69.6959 28.8322 69.4851 29.4774 69.135C30.6395 68.4953 31.6084 67.5503 32.2813 66.4002C32.8932 65.3477 33.2205 64.2026 33.3562 62.9966C33.3753 62.8274 33.3903 62.6572 33.4078 62.4884C33.4096 62.4818 33.4126 62.4755 33.4165 62.4699L33.439 62.4868V65.5633C33.439 66.9266 33.439 68.2897 33.439 69.6527C33.439 69.7235 33.439 69.7948 33.4432 69.8654C33.4475 69.936 33.4773 69.9649 33.55 69.9724C33.6059 69.9781 33.6622 69.9781 33.7187 69.9783C35.1683 69.9783 36.6182 69.9783 38.0683 69.9783C38.1246 69.9792 38.1808 69.9771 38.2368 69.972C38.3079 69.9643 38.3398 69.934 38.3447 69.8647C38.3505 69.7799 38.3501 69.6946 38.3501 69.6093C38.3501 66.3294 38.3501 63.0495 38.3501 59.7695C38.3501 59.6915 38.3514 59.6135 38.3541 59.5355C38.3545 59.5289 38.3563 59.5224 38.3595 59.5167C38.3628 59.5109 38.3673 59.506 38.3727 59.5022C38.3972 59.493 38.4106 59.5122 38.4176 59.5326C38.4625 59.6747 38.5067 59.8168 38.5504 59.9591C39.156 61.9176 39.7617 63.876 40.3673 65.8343C40.7656 67.1219 41.1638 68.4094 41.562 69.6968C41.6518 69.983 41.628 69.9781 41.94 69.9781C43.0317 69.9781 44.1227 69.9781 45.213 69.9781C45.5409 69.9781 45.5124 69.9828 45.6042 69.6869C46.0571 68.2237 46.5104 66.7602 46.964 65.2963C47.2892 64.246 47.6144 63.1958 47.9395 62.1456C48.2039 61.292 48.4693 60.4386 48.7358 59.5853C48.749 59.5434 48.7439 59.486 48.8177 59.4604C48.8188 59.5604 48.821 59.6516 48.821 59.743C48.821 63.0301 48.821 66.3171 48.821 69.6041C48.821 69.6891 48.821 69.7747 48.8262 69.8595C48.8311 69.931 48.8621 69.9634 48.9305 69.9706C48.9935 69.9763 49.0568 69.9787 49.1201 69.9778C50.8302 69.9817 52.1245 69.9858 53.8347 69.9876L53.8585 69.2699C53.8582 66.2412 53.8584 63.2129 53.8591 60.1851ZM17.4001 58.842C17.3949 58.8771 17.3862 58.9115 17.3777 58.9461C17.231 59.5528 17.1329 60.1705 17.0842 60.7931C17.0377 61.3877 17.0302 61.9848 17.0618 62.5805C17.0956 63.1689 17.1841 63.7528 17.3263 64.3245C17.3431 64.3924 17.3588 64.4625 17.3711 64.5322C17.3738 64.5426 17.3741 64.5535 17.3719 64.5641C17.3697 64.5746 17.365 64.5844 17.3584 64.5928C17.3517 64.6012 17.3432 64.6079 17.3335 64.6124C17.3238 64.6169 17.3132 64.619 17.3025 64.6187C17.2395 64.6239 17.176 64.625 17.1127 64.625C16.4099 64.625 15.7064 64.625 15.0024 64.625H12.956C12.8997 64.625 12.8438 64.6297 12.7873 64.625C12.6655 64.6132 12.5951 64.6644 12.5421 64.777C12.2846 65.3264 11.8786 65.7391 11.3665 66.0516C11.0767 66.2281 10.7588 66.3527 10.4268 66.4199C9.70433 66.5679 8.98361 66.5616 8.28039 66.3238C7.50426 66.0615 6.8948 65.5818 6.49126 64.8531C6.13042 64.2008 5.88737 63.489 5.77346 62.7509C5.69733 62.2598 5.67222 61.7621 5.69854 61.2657C5.7434 60.362 5.93878 59.4959 6.37148 58.6943C6.56057 58.3436 6.78085 58.0155 7.06057 57.7306C7.55406 57.2281 8.15567 56.943 8.84252 56.8358C9.33287 56.7593 9.82456 56.7584 10.3113 56.8663C11.2972 57.0849 12.0332 57.6388 12.5026 58.5449C12.5098 58.5572 12.5162 58.5699 12.5217 58.583C12.5628 58.7024 12.6507 58.7413 12.7685 58.7352C12.8317 58.7316 12.8952 58.7352 12.9584 58.7352H17.0948C17.1722 58.7352 17.2498 58.7352 17.3267 58.7411C17.3871 58.7434 17.41 58.7782 17.4001 58.842ZM28.299 64.6401C28.0424 65.2563 27.6373 65.7391 27.0754 66.0902C26.7816 66.274 26.457 66.4021 26.1176 66.4681C25.4431 66.6011 24.7717 66.5907 24.1174 66.3676C23.3527 66.1072 22.7652 65.621 22.3738 64.9062C22 64.2203 21.7554 63.4704 21.6524 62.6945C21.5921 62.2802 21.5678 61.8613 21.5795 61.4427C21.6082 60.636 21.7327 59.8475 22.0423 59.097C22.1814 58.7553 22.3568 58.4298 22.5654 58.1261C23.06 57.4121 23.7246 56.9595 24.5808 56.8079C24.983 56.7347 25.3941 56.7255 25.7991 56.7808C26.2371 56.8423 26.6485 56.9774 27.0234 57.2154C27.5538 57.5464 27.9734 58.0304 28.2279 58.6047C28.5112 59.2353 28.7181 59.8885 28.8156 60.5749C28.8381 60.7295 28.8605 60.8842 28.8713 61.0397C28.8849 61.2519 28.8865 61.465 28.8937 61.6777C28.9002 62.707 28.6947 63.6921 28.299 64.6401Z" fill="#A2A2A2"/>
<path d="M68.788 56.7446H54.7031V66.5174H68.788V56.7446Z" fill="none"/>
<path d="M70.3668 53.4912C70.3668 53.4344 70.3668 53.3781 70.3616 53.321C70.3565 53.2611 70.3293 53.2339 70.2663 53.2305C70.1819 53.2253 70.0974 53.2253 70.013 53.2256C67.1566 53.236 64.3002 53.2167 61.4442 53.2385C58.9887 53.2572 56.5329 53.2423 54.0773 53.2425C54.0069 53.2425 53.9365 53.243 53.8663 53.2439C53.8452 53.2425 53.824 53.2456 53.8041 53.2529C53.7842 53.2602 53.7661 53.2715 53.7507 53.2862C53.7536 53.3713 53.759 53.4564 53.7593 53.5414C53.7602 54.0596 53.7602 54.5776 53.7593 55.0956V58.2255C53.7593 58.7506 53.7631 59.2758 53.7581 59.8009C53.7534 60.3186 53.7624 60.836 53.7615 61.3537C53.7566 64.1073 53.7558 66.8609 53.7593 69.6145C53.7593 69.6713 53.7577 69.7276 53.7617 69.7848C53.7702 69.9054 53.7996 69.936 53.9143 69.9432C53.9703 69.9471 54.0264 69.9455 54.0829 69.9455C56.8622 69.9455 59.6414 69.9455 62.4207 69.9455C62.4768 69.9455 62.5328 69.9518 62.5887 69.955C63.0757 69.9358 63.5532 69.8538 64.0259 69.7385C67.6149 68.861 70.334 65.6339 70.3632 61.6465C70.3829 58.9278 70.367 56.2095 70.3668 53.4912ZM60.1515 60.4908C60.1502 60.6779 60.1192 60.6641 59.9867 60.6132C59.8562 60.559 59.7161 60.5325 59.575 60.5353C59.2787 60.5478 59.0692 60.6885 58.9499 60.963C58.8664 61.1551 58.8471 61.3603 58.8341 61.566C58.829 61.6508 58.8319 61.7363 58.8319 61.8214C58.8319 62.8011 58.8319 63.7808 58.8319 64.7605C58.8319 65.0363 58.8465 65.0266 58.5641 65.0275C57.7969 65.03 57.0297 65.0275 56.2626 65.0275C56.2343 65.0275 56.2061 65.0275 56.178 65.0259C55.9966 65.0184 55.9912 65.0157 55.9907 64.8282C55.9894 64.1536 55.9894 63.4791 55.9907 62.8047V61.0585C55.9907 60.6652 56.0399 60.2783 56.1621 59.9045C56.5235 58.8022 57.2707 58.1184 58.3884 57.8514C58.8514 57.741 59.3222 57.732 59.7942 57.7899C59.8781 57.8001 59.9624 57.8055 60.0457 57.8193C60.1159 57.8311 60.1414 57.8625 60.1479 57.9338C60.1522 57.9831 60.152 58.0331 60.152 58.0827C60.152 58.8637 60.152 59.6447 60.152 60.4256C60.1515 60.4482 60.1515 60.4695 60.1515 60.4908ZM67.7659 62.0293C67.7497 63.5543 66.6813 64.8594 65.1986 65.1823C64.4747 65.3406 63.7576 65.3029 63.0568 65.0524C62.5064 64.8555 62.0497 64.5198 61.6796 64.0663C61.3352 63.6446 61.1515 63.15 61.0609 62.6165C61.0126 62.3223 60.9887 62.0246 60.9896 61.7264C60.9882 61.2286 60.9896 60.7326 60.9896 60.2358C60.9896 59.5758 60.9896 58.9158 60.9896 58.2555C60.9896 58.0091 60.9911 58.008 61.2338 58.0078C62.0221 58.0078 62.8102 58.0078 63.5983 58.0078C63.841 58.0078 63.8424 58.0094 63.8424 58.2551C63.8424 59.4689 63.8424 60.6827 63.8424 61.8965C63.8402 61.9887 63.843 62.0809 63.8509 62.1728C63.883 62.461 64.0528 62.6174 64.3392 62.6294C64.3603 62.6303 64.3814 62.6303 64.4025 62.6294C64.7031 62.6228 64.8736 62.4683 64.9059 62.1678C64.9141 62.0688 64.9172 61.9694 64.9151 61.87C64.9151 60.6918 64.9151 59.5136 64.9151 58.3352C64.9151 58.2644 64.9139 58.1931 64.9184 58.1225C64.9236 58.0361 64.9467 58.0159 65.0378 58.0094C65.0727 58.0067 65.108 58.0071 65.1432 58.0071C65.9456 58.0071 66.7478 58.0071 67.5498 58.0071C67.7645 58.0071 67.7674 58.0098 67.7676 58.2166C67.7683 59.4878 67.7782 60.7584 67.7647 62.0289L67.7659 62.0293Z" fill="#FA332D"/>
<path class="svg0" d="M73 -3H-2V72H73V-3Z" fill="#D9D9D9" fill-opacity="0.01"/>
</svg>
