<svg id="Main" width="100%" height="100%" viewBox="0 0 37 44" xmlns="http://www.w3.org/2000/svg">
<path d="M27.0891 1.7187C27.5402 2.56372 28.4247 4.20094 29.0527 5.36285C30.919 8.80329 30.981 8.91646 30.981 8.96927C30.981 8.99945 30.4237 9.02209 29.7426 9.02209H28.5043V23.2064V37.3906H26.2045H23.9048L23.8871 23.2214L23.8606 9.05981L22.6399 9.03717C21.4193 9.01454 21.4193 9.01454 21.4812 8.84855C21.5166 8.75802 22.065 7.71683 22.7107 6.53229C23.3475 5.34776 24.3913 3.43892 25.0104 2.28456C25.6385 1.13774 26.178 0.194641 26.2045 0.194641C26.2399 0.194641 26.6291 0.88122 27.0891 1.7187Z"/>
<path d="M12.4943 1.7187C12.9454 2.56372 13.83 4.20094 14.458 5.36285C15.086 6.52475 15.7759 7.79982 15.997 8.1997C16.2093 8.59203 16.3862 8.93909 16.3862 8.96927C16.3862 8.99945 15.829 9.02209 15.1479 9.02209H13.9096V23.2064V37.3906H11.6098H9.31006L9.29237 23.2214L9.26584 9.05981L8.0452 9.03717C7.38181 9.02963 6.83341 8.98436 6.83341 8.95418C6.83341 8.88628 7.36412 7.90545 10.4334 2.24683C11.0526 1.12265 11.5744 0.194641 11.6098 0.194641C11.6364 0.194641 12.0344 0.88122 12.4943 1.7187Z"/>
<path d="M36.9072 41.541V43.5781H18.9072H0.907225V41.541V39.5039H18.9072H36.9072V41.541Z"/>
</svg>
