<svg id="Main" width="32" height="32" viewBox="0 0 32 32" stroke="none" xmlns="http://www.w3.org/2000/svg">
<path d="M3.91016 23V9.03516H9.86719C12.5234 9.03516 13.8516 10.1517 13.8516 12.3848C13.8516 14.2012 12.5527 15.5456 9.95508 16.418L14.75 23H12.3672L7.92383 16.7207V15.5391C10.5931 15.1159 11.9277 14.0905 11.9277 12.4629C11.9277 11.1738 11.1855 10.5293 9.70117 10.5293H5.7168V23H3.91016ZM16.5664 17.6094V9.03516H18.373V17.6094C18.373 20.2917 19.7077 21.6328 22.377 21.6328C25.0462 21.6328 26.3809 20.2917 26.3809 17.6094V9.03516H28.1875V17.6094C28.1875 21.2682 26.2507 23.0977 22.377 23.0977C18.5033 23.0977 16.5664 21.2682 16.5664 17.6094Z"/>
</svg>
