<svg id="Main" width="100%" height="100%" viewBox="0 0 225 105" fill="none" xmlns="http://www.w3.org/2000/svg">
<path d="M2.55225 23.0986H50.2241V31.375H11.27L9.9458 55.7627C14.2495 54.9535 18.7739 54.5488 23.519 54.5488C43.3823 54.5488 53.314 62.0895 53.314 77.1709C53.314 94.0915 43.0145 102.552 22.4155 102.552C15.4266 102.552 8.25374 101.448 0.896973 99.2412V90.4131C8.25374 92.988 15.6105 94.2754 22.9673 94.2754C36.3934 94.2754 43.1064 88.5739 43.1064 77.1709C43.1064 67.6071 36.5773 62.8252 23.519 62.8252C15.2427 62.8252 7.70199 63.5609 0.896973 65.0322L2.55225 23.0986Z" fill="#333333"/>
<path d="M11.4355 0.0351562V1.5H3.47656V12.5059H7.45117C9.00065 12.5059 9.77539 11.6953 9.77539 10.0742C9.77539 8.32943 8.82487 7.45703 6.92383 7.45703H5.08789V5.99219H7.01172C10.0586 5.99219 11.582 7.31706 11.582 9.9668C11.582 12.6556 10.2604 14 7.61719 14H1.66016V0.0351562H11.4355Z" fill="#A0A0A0"/>
<path d="M13.7891 8.87305C13.7891 5.38997 15.4818 3.64844 18.8672 3.64844C22.2526 3.64844 23.9453 5.38997 23.9453 8.87305C23.9453 12.3561 22.2526 14.0977 18.8672 14.0977C15.4948 14.0977 13.8021 12.3561 13.7891 8.87305ZM15.5957 8.83398C15.5957 11.3665 16.6862 12.6328 18.8672 12.6328C21.0482 12.6328 22.1387 11.3665 22.1387 8.83398C22.1387 6.35352 21.0482 5.11328 18.8672 5.11328C16.6862 5.11328 15.5957 6.35352 15.5957 8.83398Z" fill="#A0A0A0"/>
<path d="M24.9219 12.5352C26.4648 12.5352 27.2363 11.6562 27.2363 9.89844V3.74609H35.0488V14H33.2422V5.21094H29.043V9.89844C29.043 12.6328 27.6693 14 24.9219 14V12.5352Z" fill="#A0A0A0"/>
<path d="M42.2168 3.74609C45.1335 3.74609 46.5918 5.18815 46.5918 8.07227C46.5918 8.48242 46.5625 8.92188 46.5039 9.39062H39.3066C39.3066 11.487 40.5306 12.5352 42.9785 12.5352C44.1439 12.5352 45.179 12.4049 46.084 12.1445V13.6094C45.179 13.8698 44.0788 14 42.7832 14C39.2611 14 37.5 12.252 37.5 8.75586C37.5 5.41602 39.0723 3.74609 42.2168 3.74609ZM39.3066 7.88672H44.8535C44.8145 6.08984 43.9355 5.19141 42.2168 5.19141C40.3939 5.19141 39.4238 6.08984 39.3066 7.88672Z" fill="#A0A0A0"/>
<path d="M53.252 3.74609C56.1686 3.74609 57.627 5.18815 57.627 8.07227C57.627 8.48242 57.5977 8.92188 57.5391 9.39062H50.3418C50.3418 11.487 51.5658 12.5352 54.0137 12.5352C55.179 12.5352 56.2142 12.4049 57.1191 12.1445V13.6094C56.2142 13.8698 55.1139 14 53.8184 14C50.2962 14 48.5352 12.252 48.5352 8.75586C48.5352 5.41602 50.1074 3.74609 53.252 3.74609ZM50.3418 7.88672H55.8887C55.8496 6.08984 54.9707 5.19141 53.252 5.19141C51.429 5.19141 50.459 6.08984 50.3418 7.88672Z" fill="#A0A0A0"/>
<path d="M61 53.4844C67.4688 53.4844 70.7031 48.4062 70.7031 38.25V23.4844H92.7344V57H88.3984V27H75.0391V38.25C75.0391 50.75 70.3594 57 61 57V53.4844Z" fill="#333333"/>
<path d="M122.617 23.4844V27H105.039V38.25H121.797V41.7656H105.039V53.4844H122.969V57H100.703V23.4844H122.617Z" fill="#333333"/>
<path d="M152.148 23.4844V27H141.602V57H137.266V27H126.719V23.4844H152.148Z" fill="#333333"/>
<path d="M67.9141 77.5352C68.9297 77.5352 69.4375 77.0143 69.4375 75.9727C69.4375 74.9961 68.6465 74.5078 67.0645 74.5078H66.2832V73.3262C68.3014 73.0983 69.3105 72.418 69.3105 71.2852C69.3105 70.569 68.8939 70.2109 68.0605 70.2109H64.2715V77.5352H67.9141ZM62.4648 79V68.7461H68.2266C70.2318 68.7461 71.2344 69.6022 71.2344 71.3145C71.2344 72.3757 70.5964 73.1634 69.3203 73.6777C70.7135 74.0228 71.4102 74.778 71.4102 75.9434C71.4102 77.9811 70.2806 79 68.0215 79H62.4648Z" fill="#A0A0A0"/>
<path d="M73.8516 79V68.7461H75.6582V73.043H81.0781V68.7461H82.8848V79H81.0781V74.5078H75.6582V79H73.8516Z" fill="#A0A0A0"/>
<path d="M90.0527 68.7461C92.9694 68.7461 94.4277 70.1882 94.4277 73.0723C94.4277 73.4824 94.3984 73.9219 94.3398 74.3906H87.1426C87.1426 76.487 88.3665 77.5352 90.8145 77.5352C91.9798 77.5352 93.015 77.4049 93.9199 77.1445V78.6094C93.015 78.8698 91.9147 79 90.6191 79C87.097 79 85.3359 77.252 85.3359 73.7559C85.3359 70.416 86.9082 68.7461 90.0527 68.7461ZM87.1426 72.8867H92.6895C92.6504 71.0898 91.7715 70.1914 90.0527 70.1914C88.2298 70.1914 87.2598 71.0898 87.1426 72.8867Z" fill="#A0A0A0"/>
<path d="M96.8594 79V68.7461H98.666V77.5352H102.475V68.7461H104.281V77.5352H108.09V68.7461H109.896V79H96.8594Z" fill="#A0A0A0"/>
<path d="M112.836 79V68.7461H114.643V73.043H120.062V68.7461H121.869V79H120.062V74.5078H114.643V79H112.836Z" fill="#A0A0A0"/>
<path d="M129.037 68.7461C131.954 68.7461 133.412 70.1882 133.412 73.0723C133.412 73.4824 133.383 73.9219 133.324 74.3906H126.127C126.127 76.487 127.351 77.5352 129.799 77.5352C130.964 77.5352 131.999 77.4049 132.904 77.1445V78.6094C131.999 78.8698 130.899 79 129.604 79C126.081 79 124.32 77.252 124.32 73.7559C124.32 70.416 125.893 68.7461 129.037 68.7461ZM126.127 72.8867H131.674C131.635 71.0898 130.756 70.1914 129.037 70.1914C127.214 70.1914 126.244 71.0898 126.127 72.8867Z" fill="#A0A0A0"/>
<path d="M143.412 68.7461V70.2109H139.799V79H137.992V70.2109H134.379V68.7461H143.412Z" fill="#A0A0A0"/>
<path d="M144.398 73.873C144.398 70.39 146.091 68.6484 149.477 68.6484C152.862 68.6484 154.555 70.39 154.555 73.873C154.555 77.3561 152.862 79.0977 149.477 79.0977C146.104 79.0977 144.411 77.3561 144.398 73.873ZM146.205 73.834C146.205 76.3665 147.296 77.6328 149.477 77.6328C151.658 77.6328 152.748 76.3665 152.748 73.834C152.748 71.3535 151.658 70.1133 149.477 70.1133C147.296 70.1133 146.205 71.3535 146.205 73.834Z" fill="#A0A0A0"/>
<path d="M158.803 76.9102C159.512 77.2617 160.303 77.4375 161.176 77.4375C163.5 77.4375 164.662 76.1582 164.662 73.5996C164.662 71.3665 163.507 70.25 161.195 70.25C160.284 70.25 159.486 70.3281 158.803 70.4844V76.9102ZM156.996 69.166C158.357 68.8861 159.763 68.7461 161.215 68.7461C164.698 68.7461 166.439 70.3704 166.439 73.6191C166.439 77.2064 164.688 79 161.186 79C160.365 79 159.571 78.8372 158.803 78.5117V82.7109H156.996V69.166Z" fill="#A0A0A0"/>
<path d="M168.891 79V68.7461H175.707V70.2109H170.697V79H168.891Z" fill="#A0A0A0"/>
<path d="M176.684 73.873C176.684 70.39 178.376 68.6484 181.762 68.6484C185.147 68.6484 186.84 70.39 186.84 73.873C186.84 77.3561 185.147 79.0977 181.762 79.0977C178.389 79.0977 176.697 77.3561 176.684 73.873ZM178.49 73.834C178.49 76.3665 179.581 77.6328 181.762 77.6328C183.943 77.6328 185.033 76.3665 185.033 73.834C185.033 71.3535 183.943 70.1133 181.762 70.1133C179.581 70.1133 178.49 71.3535 178.49 73.834Z" fill="#A0A0A0"/>
<path d="M194.73 77.5352C195.746 77.5352 196.254 77.0143 196.254 75.9727C196.254 74.9961 195.463 74.5078 193.881 74.5078H193.1V73.3262C195.118 73.0983 196.127 72.418 196.127 71.2852C196.127 70.569 195.71 70.2109 194.877 70.2109H191.088V77.5352H194.73ZM189.281 79V68.7461H195.043C197.048 68.7461 198.051 69.6022 198.051 71.3145C198.051 72.3757 197.413 73.1634 196.137 73.6777C197.53 74.0228 198.227 74.778 198.227 75.9434C198.227 77.9811 197.097 79 194.838 79H189.281Z" fill="#A0A0A0"/>
<path d="M210.678 79V68.7461H212.484V79H210.678ZM202.475 68.7461V77.5059H205.58C206.739 77.5059 207.318 76.9557 207.318 75.8555C207.318 74.9635 206.726 74.5176 205.541 74.5176H203.803V73.0527H205.629C207.973 73.0527 209.145 74.0163 209.145 75.9434C209.145 77.9811 208.012 79 205.746 79H200.668V68.7461H202.475Z" fill="#A0A0A0"/>
<path d="M216.293 79H214.193L218.275 73.873L214.193 68.7461H216.293L219.32 72.5547L222.348 68.7461H224.447L220.365 73.873L224.447 79H222.348L219.32 75.1914L216.293 79Z" fill="#A0A0A0"/>
<path d="M70.1797 100.707C69.3333 100.902 68.4219 101 67.4453 101C63.7995 101 61.9766 99.2259 61.9766 95.6777C61.9766 92.39 63.7995 90.7461 67.4453 90.7461C68.4219 90.7461 69.3333 90.8438 70.1797 91.0391V92.5039C69.3333 92.3086 68.3893 92.2109 67.3477 92.2109C64.9714 92.2109 63.7832 93.3665 63.7832 95.6777C63.7832 98.2493 64.9714 99.5352 67.3477 99.5352C68.3893 99.5352 69.3333 99.4375 70.1797 99.2422V100.707Z" fill="#A0A0A0"/>
<path d="M75.4531 99.5352H80.6191V92.2109H77.0059C77.0059 95.8503 76.4883 98.2917 75.4531 99.5352ZM71.0195 104.711V99.5352H72.8164C74.4049 99.5352 75.1992 97.0938 75.1992 92.2109V90.7461H82.4258V99.5352H84.2324V104.711H82.4258V101H72.8164V104.711H71.0195Z" fill="#A0A0A0"/>
<path d="M90.6582 90.7461C93.5749 90.7461 95.0332 92.1882 95.0332 95.0723C95.0332 95.4824 95.0039 95.9219 94.9453 96.3906H87.748C87.748 98.487 88.972 99.5352 91.4199 99.5352C92.5853 99.5352 93.6204 99.4049 94.5254 99.1445V100.609C93.6204 100.87 92.5202 101 91.2246 101C87.7025 101 85.9414 99.252 85.9414 95.7559C85.9414 92.416 87.5137 90.7461 90.6582 90.7461ZM87.748 94.8867H93.2949C93.2559 93.0898 92.377 92.1914 90.6582 92.1914C88.8353 92.1914 87.8652 93.0898 87.748 94.8867Z" fill="#A0A0A0"/>
<path d="M96 99.5352C97.543 99.5352 98.3145 98.6562 98.3145 96.8984V90.7461H106.127V101H104.32V92.2109H100.121V96.8984C100.121 99.6328 98.7474 101 96 101V99.5352Z" fill="#A0A0A0"/>
<path d="M108.578 95.873C108.578 92.39 110.271 90.6484 113.656 90.6484C117.042 90.6484 118.734 92.39 118.734 95.873C118.734 99.3561 117.042 101.098 113.656 101.098C110.284 101.098 108.591 99.3561 108.578 95.873ZM110.385 95.834C110.385 98.3665 111.475 99.6328 113.656 99.6328C115.837 99.6328 116.928 98.3665 116.928 95.834C116.928 93.3535 115.837 92.1133 113.656 92.1133C111.475 92.1133 110.385 93.3535 110.385 95.834Z" fill="#A0A0A0"/>
<path d="M128.158 101L126.723 98.5977C125.759 96.9896 124.828 96.1855 123.93 96.1855V94.9844C124.971 94.9844 125.746 94.278 126.254 92.8652C126.768 91.4525 127.637 90.7461 128.861 90.7461H129.906V92.3086H129.135C128.432 92.3086 127.914 92.7871 127.582 93.7441C127.25 94.6947 126.677 95.3294 125.863 95.6484C126.632 95.7852 127.553 96.7096 128.627 98.4219L130.248 101H128.158ZM122.982 90.7461V101H121.176V90.7461H122.982Z" fill="#A0A0A0"/>
</svg>
