<svg id="Main" width="100%" height="100%" viewBox="0 0 224 107" fill="none" xmlns="http://www.w3.org/2000/svg">
<path d="M84.9844 106V72.4844H99.2812C105.656 72.4844 108.844 75.0859 108.844 80.2891C108.844 84.1016 106.766 86.8281 102.609 88.4688C107.047 89.2969 109.266 91.8359 109.266 96.0859C109.266 102.695 105.773 106 98.7891 106H84.9844ZM98.5312 102.484C102.531 102.484 104.531 100.453 104.531 96.3906C104.531 92.4375 101.852 90.4609 96.4922 90.4609H94.6172V87.625C101.023 86.7656 104.227 84.4531 104.227 80.6875C104.227 77.5625 102.445 76 98.8828 76H89.3203V102.484H98.5312Z" fill="#333333"/>
<path d="M117.258 106H112.758L126.984 72.4844H131.789L146.086 106H141.281L136.945 95.4531H125.859L127.055 91.9375H135.492L129.234 76.75L117.258 106Z" fill="#333333"/>
<path d="M150.656 106V72.4844H156.164L168.469 100.445L180.539 72.4844H185.812V106H181.945V78.5078L170.039 106H166.617L154.523 78.5078V106H150.656Z" fill="#333333"/>
<path d="M12.8286 106H1.51758L57.6313 27.0986H68.9424L12.8286 106ZM8.69043 40.7822C8.69043 46.1895 11.4124 48.8931 16.8564 48.8931C22.1533 48.8931 24.8018 46.1895 24.8018 40.7822C24.8018 35.4854 22.1533 32.8369 16.8564 32.8369C11.4124 32.8369 8.69043 35.4854 8.69043 40.7822ZM1.51758 40.8926C1.51758 31.3288 6.63053 26.5469 16.8564 26.5469C26.9352 26.5469 31.9746 31.3288 31.9746 40.8926C31.9746 50.4196 26.9352 55.1831 16.8564 55.1831C6.63053 55.1831 1.51758 50.4196 1.51758 40.8926ZM45.6582 92.1509C45.6582 97.5581 48.3802 100.262 53.8242 100.262C59.1211 100.262 61.7695 97.5581 61.7695 92.1509C61.7695 86.854 59.1211 84.2056 53.8242 84.2056C48.3802 84.2056 45.6582 86.854 45.6582 92.1509ZM38.4854 92.2612C38.4854 82.6974 43.5983 77.9155 53.8242 77.9155C63.903 77.9155 68.9424 82.6974 68.9424 92.2612C68.9424 101.788 63.903 106.552 53.8242 106.552C43.5983 106.552 38.4854 101.788 38.4854 92.2612Z" fill="#333333"/>
<path d="M0.660156 15V1.03516H9.77148V2.5H2.4668V15H0.660156Z" fill="#A0A0A0"/>
<path d="M10.7578 11.9043C10.7578 9.80143 12.1445 8.75 14.918 8.75C15.8099 8.75 16.7018 8.8151 17.5938 8.94531V7.97852C17.5938 6.80013 16.6725 6.21094 14.8301 6.21094C13.7754 6.21094 12.6947 6.3737 11.5879 6.69922V5.23438C12.6947 4.90885 13.7754 4.74609 14.8301 4.74609C17.877 4.74609 19.4004 5.80729 19.4004 7.92969V15H18.3848L17.7598 13.9844C16.7376 14.6615 15.6243 15 14.4199 15C11.9785 15 10.7578 13.9681 10.7578 11.9043ZM14.918 10.2148C13.349 10.2148 12.5645 10.7682 12.5645 11.875C12.5645 12.9818 13.1829 13.5352 14.4199 13.5352C15.6699 13.5352 16.7279 13.2031 17.5938 12.5391V10.4102C16.7018 10.2799 15.8099 10.2148 14.918 10.2148Z" fill="#A0A0A0"/>
<path d="M24.1465 12.9102C24.8561 13.2617 25.6471 13.4375 26.5195 13.4375C28.8438 13.4375 30.0059 12.1582 30.0059 9.59961C30.0059 7.36654 28.8503 6.25 26.5391 6.25C25.6276 6.25 24.8301 6.32812 24.1465 6.48438V12.9102ZM22.3398 5.16602C23.7005 4.88607 25.1068 4.74609 26.5586 4.74609C30.0417 4.74609 31.7832 6.37044 31.7832 9.61914C31.7832 13.2064 30.0319 15 26.5293 15C25.709 15 24.9147 14.8372 24.1465 14.5117V18.7109H22.3398V5.16602Z" fill="#A0A0A0"/>
<path d="M33.7461 11.9043C33.7461 9.80143 35.1328 8.75 37.9062 8.75C38.7982 8.75 39.6901 8.8151 40.582 8.94531V7.97852C40.582 6.80013 39.6608 6.21094 37.8184 6.21094C36.7637 6.21094 35.6829 6.3737 34.5762 6.69922V5.23438C35.6829 4.90885 36.7637 4.74609 37.8184 4.74609C40.8652 4.74609 42.3887 5.80729 42.3887 7.92969V15H41.373L40.748 13.9844C39.7259 14.6615 38.6126 15 37.4082 15C34.9668 15 33.7461 13.9681 33.7461 11.9043ZM37.9062 10.2148C36.3372 10.2148 35.5527 10.7682 35.5527 11.875C35.5527 12.9818 36.1712 13.5352 37.4082 13.5352C38.6582 13.5352 39.7161 13.2031 40.582 12.5391V10.4102C39.6901 10.2799 38.7982 10.2148 37.9062 10.2148Z" fill="#A0A0A0"/>
<path d="M45.3281 15V4.74609H47.1348V9.04297H52.5547V4.74609H54.3613V15H52.5547V10.5078H47.1348V15H45.3281Z" fill="#A0A0A0"/>
<path d="M64.8691 4.74609V6.21094H61.2559V15H59.4492V6.21094H55.8359V4.74609H64.8691Z" fill="#A0A0A0"/>
<path d="M73.668 15V7.07031L68.1504 15H66.3438V4.74609H68.0527V12.6758L73.5703 4.74609H75.377V15H73.668Z" fill="#A0A0A0"/>
<path d="M85.6406 15V7.07031L80.123 15H78.3164V4.74609H80.0254V12.6758L85.543 4.74609H87.3496V15H85.6406Z" fill="#A0A0A0"/>
<path d="M96.1484 15V2.7832H94.6836V1.91406L97.9551 0.9375V15H96.1484Z" fill="#A0A0A0"/>
<path d="M102.994 7.97852C102.994 11.748 104.371 13.6328 107.125 13.6328C109.807 13.6328 111.148 11.748 111.148 7.97852C111.148 4.26107 109.807 2.40234 107.125 2.40234C104.371 2.40234 102.994 4.26107 102.994 7.97852ZM101.09 8.03711C101.09 3.30404 103.102 0.9375 107.125 0.9375C111.077 0.9375 113.053 3.30404 113.053 8.03711C113.053 12.7441 111.077 15.0977 107.125 15.0977C103.102 15.0977 101.09 12.7441 101.09 8.03711Z" fill="#A0A0A0"/>
<path d="M117.115 7.97852C117.115 11.748 118.492 13.6328 121.246 13.6328C123.928 13.6328 125.27 11.748 125.27 7.97852C125.27 4.26107 123.928 2.40234 121.246 2.40234C118.492 2.40234 117.115 4.26107 117.115 7.97852ZM115.211 8.03711C115.211 3.30404 117.223 0.9375 121.246 0.9375C125.198 0.9375 127.174 3.30404 127.174 8.03711C127.174 12.7441 125.198 15.0977 121.246 15.0977C117.223 15.0977 115.211 12.7441 115.211 8.03711Z" fill="#A0A0A0"/>
<path d="M86.4648 37V26.7461H88.2715V31.043H93.6914V26.7461H95.498V37H93.6914V32.5078H88.2715V37H86.4648Z" fill="#A0A0A0"/>
<path d="M97.9492 33.9043C97.9492 31.8014 99.3359 30.75 102.109 30.75C103.001 30.75 103.893 30.8151 104.785 30.9453V29.9785C104.785 28.8001 103.864 28.2109 102.021 28.2109C100.967 28.2109 99.8861 28.3737 98.7793 28.6992V27.2344C99.8861 26.9089 100.967 26.7461 102.021 26.7461C105.068 26.7461 106.592 27.8073 106.592 29.9297V37H105.576L104.951 35.9844C103.929 36.6615 102.816 37 101.611 37C99.1699 37 97.9492 35.9681 97.9492 33.9043ZM102.109 32.2148C100.54 32.2148 99.7559 32.7682 99.7559 33.875C99.7559 34.9818 100.374 35.5352 101.611 35.5352C102.861 35.5352 103.919 35.2031 104.785 34.5391V32.4102C103.893 32.2799 103.001 32.2148 102.109 32.2148Z" fill="#A0A0A0"/>
<path d="M85.2441 48.7461H87.207L90.1074 56.7539L93.1055 48.7461H95.0195L90.7617 59.3027C90.0065 61.1647 88.8737 62.3268 87.3633 62.7891L86.6699 61.5098C87.8158 61.0085 88.6491 60.1914 89.1699 59.0586L85.2441 48.7461Z" fill="#A0A0A0"/>
<path d="M104.434 58.707C103.587 58.9023 102.676 59 101.699 59C98.0534 59 96.2305 57.2259 96.2305 53.6777C96.2305 50.39 98.0534 48.7461 101.699 48.7461C102.676 48.7461 103.587 48.8438 104.434 49.0391V50.5039C103.587 50.3086 102.643 50.2109 101.602 50.2109C99.2253 50.2109 98.0371 51.3665 98.0371 53.6777C98.0371 56.2493 99.2253 57.5352 101.602 57.5352C102.643 57.5352 103.587 57.4375 104.434 57.2422V58.707Z" fill="#A0A0A0"/>
<path d="M105.273 57.5352C106.816 57.5352 107.588 56.6562 107.588 54.8984V48.7461H115.4V59H113.594V50.2109H109.395V54.8984C109.395 57.6328 108.021 59 105.273 59V57.5352Z" fill="#A0A0A0"/>
<path d="M117.119 48.7461H119.082L121.982 56.7539L124.98 48.7461H126.895L122.637 59.3027C121.882 61.1647 120.749 62.3268 119.238 62.7891L118.545 61.5098C119.691 61.0085 120.524 60.1914 121.045 59.0586L117.119 48.7461Z" fill="#A0A0A0"/>
<path d="M128.594 59V48.7461H135.41V50.2109H130.4V59H128.594Z" fill="#A0A0A0"/>
<path d="M144.199 59V51.0703L138.682 59H136.875V48.7461H138.584V56.6758L144.102 48.7461H145.908V59H144.199Z" fill="#A0A0A0"/>
</svg>
