<svg id="Main" width="100%" height="100%" viewBox="0 0 208 248" xmlns="http://www.w3.org/2000/svg">
<path d="M120.596 16.7371V33.4746H126.175H131.754V16.7371V-0.000387758H126.175H120.596V16.7371Z"/>
<path d="M90.4254 11.8017C88.1079 13.5183 86.0908 15.0204 85.962 15.1492C85.8333 15.2779 87.0779 17.2092 88.7087 19.3979C102.7 38.2383 105.661 42.0579 106.133 41.7575C107.377 41.0279 114.587 35.4917 114.587 35.2771C114.587 35.0625 94.8029 8.54 94.6741 8.62583C94.6741 8.62583 92.7429 10.0421 90.4254 11.8017Z"/>
<path d="M157.633 12.3169C152.354 18.6686 138.621 35.7494 138.621 36.0069C138.621 36.2215 140.509 37.9382 142.87 39.8265L147.118 43.3027L151.324 38.0669C153.685 35.1915 158.405 29.3119 161.882 25.0202L168.233 17.2094L163.942 13.7331C161.624 11.8448 159.607 10.2998 159.521 10.2998C159.435 10.2998 158.577 11.2011 157.633 12.3169Z"/>
<path d="M45.1054 34.8479C44.1612 37.7233 43.3887 40.1267 43.4745 40.1696C43.6033 40.2554 96.3479 56.0487 97.8929 56.435C99.0087 56.6925 99.0516 56.6496 100.811 51.4567C101.755 48.5812 102.528 46.135 102.442 46.0921C102.27 45.8775 47.7233 29.6121 47.2512 29.6121C47.0366 29.6121 46.0495 31.9725 45.1054 34.8479Z"/>
<path d="M172.954 38.7537C160.337 43.0024 149.908 46.5645 149.822 46.6504C149.65 46.7791 152.612 56.5641 153.041 57.4224C153.127 57.5941 199.605 41.7579 199.906 41.4574C200.292 41.0283 196.859 30.8999 196.344 30.9429C196.129 30.9858 185.572 34.5049 172.954 38.7537Z"/>
<path d="M121.068 41.4576C117.635 42.3588 114.888 44.0326 112.27 46.7792C109.652 49.5259 108.407 51.6717 107.506 55.2338C106.305 59.8259 106.948 64.8471 109.309 69.1817C110.639 71.6709 114.587 75.4905 117.077 76.778C122.613 79.6105 129.308 79.6105 134.844 76.778C137.162 75.5763 140.981 71.9284 142.355 69.6109C145.874 63.6455 145.874 56.0921 142.355 50.1267C140.981 47.8092 137.162 44.1613 134.844 42.9596C130.681 40.8567 125.488 40.2559 121.068 41.4576Z"/>
<path d="M151.153 68.3233C150.037 71.8424 149.65 73.6879 149.951 73.8595C150.509 74.2029 200.678 89.2666 201.15 89.2666C201.494 89.2666 204.841 78.9666 204.627 78.7091C204.455 78.5804 153.427 63.0874 153.084 63.0874C152.955 63.0874 152.054 65.4479 151.153 68.3233Z"/>
<path d="M71.8854 73.7306C57.5083 79.3527 39.0112 86.5198 30.8142 89.6956C22.5742 92.8714 15.8792 95.661 15.8792 95.8756C15.8792 96.691 19.4412 106.39 19.6987 106.261C19.8275 106.219 38.5392 98.9227 61.285 90.0818C83.9879 81.2839 102.571 73.9023 102.571 73.7306C102.571 72.7006 98.9658 63.5164 98.5367 63.5164C98.2792 63.5593 86.3054 68.1514 71.8854 73.7306Z"/>
<path d="M141.282 81.7992L136.904 85.0609L139.651 88.5371C144.372 94.6313 172.654 131.411 185.829 148.663C192.782 157.762 198.576 165.186 198.704 165.186C199.091 165.229 207.717 158.749 207.717 158.448C207.717 158.277 202.181 150.981 195.443 142.269C188.662 133.514 178.362 120.21 172.568 112.656C149.565 82.8292 146.217 78.5376 145.917 78.5376C145.788 78.5376 143.685 79.9967 141.282 81.7992Z"/>
<path d="M85.3184 109.738C74.0313 126.647 64.8471 140.509 64.933 140.552C64.9759 140.595 70.2117 137.419 76.5205 133.514L88.0221 126.39L93.8159 117.592C97.0346 112.742 103.172 103.429 107.506 96.9061L115.403 85.0181L110.94 82.014C108.45 80.3402 106.305 78.9669 106.133 78.9669C105.961 79.0098 96.5626 92.829 85.3184 109.738Z"/>
<path d="M124.63 86.6053L120.167 86.734V110.209V133.685L125.746 136.603L131.325 139.564V112.913V86.262L130.209 86.3907C129.565 86.4336 127.076 86.5195 124.63 86.6053Z"/>
<path d="M89.4813 130.853C75.3617 138.964 6.18 178.705 3.13292 180.421C1.41625 181.408 0 182.353 0 182.524C0 182.868 6.73792 194.713 7.29583 195.399C7.4675 195.614 27.6813 184.413 52.1867 170.551C76.735 156.688 96.9917 145.358 97.2063 145.358C97.4638 145.358 118.793 156.517 144.629 170.121C170.465 183.683 191.752 194.67 191.88 194.498C192.052 194.326 193.855 191.365 195.829 187.889L199.52 181.58L197.288 180.293C196.043 179.606 182.696 172.396 167.59 164.242C152.483 156.131 130.595 144.328 118.965 138.02C107.335 131.754 97.5496 126.604 97.2921 126.604C96.9917 126.604 93.5154 128.535 89.4813 130.853Z"/>
<path d="M67.8083 215.871V247.629H99.5667H131.325V215.871V184.112H99.5667H67.8083V215.871Z"/>
</svg>
