<svg class="svg" xmlns="http://www.w3.org/2000/svg" x="0px" y="0px">




<defs>
    <mask id="triangle-m" maskUnits="objectBoundingBox">
        <!-- <path d="M0.05,0.05 h1 v1"/>
        <path d="M0.05,0.07 h1 v1"/> -->
        <path d="M1.69409 49.8366C1.69409 38.9464 1.69409 28.0553 1.69409 17.1636C1.69409 16.1223 1.69409 15.0812 1.69409 14.0402C1.69409 11.6331 2.27245 9.36718 3.45235 7.27553C5.53208 3.5854 8.65985 1.27444 12.7726 0.31672C13.715 0.101642 14.6789 -0.00457109 15.6454 0.000150756C38.3713 0.00218494 61.0973 0.00282062 83.8232 0.0020578C84.3055 0.0020578 84.2735 -0.0452369 84.2735 0.439916C84.2735 9.4755 84.2735 18.5111 84.2735 27.5467C84.2735 28.0425 84.3085 27.999 83.7974 27.999H40.1219C36.7834 27.999 33.4449 27.999 30.1062 27.999C29.5313 27.999 29.5894 27.9323 29.5928 28.5174C29.5985 29.498 29.5168 30.4763 29.5412 31.4573C29.5564 32.0553 29.5438 32.6541 29.5438 33.2525C29.5438 33.3361 29.5412 33.4204 29.5457 33.5039C29.5609 33.7907 29.5917 33.8186 29.8877 33.8228C29.9949 33.8228 30.1024 33.8228 30.2096 33.8228C42.6936 33.8228 55.1774 33.8228 67.6611 33.8228C68.2923 33.8228 68.2194 33.7327 68.2197 34.3666C68.2213 43.3305 68.2213 52.2944 68.2197 61.2583C68.2197 61.8964 68.2798 61.8182 67.671 61.8182C55.1751 61.8182 42.6794 61.819 30.1837 61.8205C29.5028 61.8205 29.5906 61.7255 29.5906 62.4021C29.5883 70.3609 29.5883 78.3196 29.5906 86.2783C29.5906 86.4218 29.5864 86.5652 29.5799 86.7086C29.5769 86.778 29.5282 86.8138 29.4659 86.8253C29.4187 86.8321 29.3711 86.8353 29.3234 86.8348C29.228 86.8367 29.1334 86.8348 29.0373 86.8348H2.24737C2.11627 86.8348 1.98479 86.8348 1.85407 86.8276C1.74539 86.8211 1.70929 86.7826 1.70207 86.6697C1.69409 86.5533 1.69409 86.4336 1.69409 86.313C1.69409 83.6203 1.69409 80.9276 1.69409 78.2348V49.8366Z" fill="white"/>
        <path d="M119.209 43.5165C119.209 57.8067 119.209 72.0959 119.209 86.3842C119.209 86.5395 119.209 86.6955 119.2 86.8503C119.195 86.9518 119.144 86.9983 119.04 87.0052C118.936 87.012 118.826 87.0113 118.719 87.0113C114.259 87.0113 109.8 87.0338 105.341 87.0052C101.709 86.9819 98.5284 85.7309 95.8483 83.2674C93.6063 81.2078 92.2049 78.6546 91.5874 75.6697C91.4073 74.7899 91.3182 73.8938 91.3214 72.9956C91.3214 71.4162 91.3381 69.836 91.3161 68.257C91.2974 66.9049 91.2959 65.5532 91.2944 64.2011C91.2944 63.5069 91.3016 62.8132 91.3031 62.119C91.3031 61.6483 91.3164 61.6884 90.8779 61.6884C86.0489 61.6884 81.22 61.6884 76.3912 61.6884H76.1051C75.7547 61.6884 75.7593 61.6983 75.7593 61.3249C75.7593 60.3673 75.7593 59.4098 75.7593 58.4525C75.7593 50.3865 75.7593 42.3204 75.7593 34.2544C75.7593 33.6216 75.6833 33.6926 76.3046 33.6926C81.1214 33.6905 85.9384 33.6905 90.7556 33.6926C90.8627 33.6926 90.9703 33.6949 91.0774 33.6926C91.2936 33.6857 91.3111 33.6678 91.3187 33.4366C91.3229 33.305 91.3187 33.1735 91.3187 33.0419V0.689604C91.3187 0.558017 91.3168 0.42605 91.3187 0.294845C91.3256 0.0183233 91.3354 0.00878809 91.5961 0.00268555C91.6558 0.00268555 91.7154 0.00268555 91.7751 0.00268555H118.745C118.841 0.00268555 118.935 0.00268555 119.031 0.00611823C119.16 0.013365 119.194 0.0442591 119.201 0.183855C119.208 0.339088 119.206 0.494703 119.206 0.650318C119.206 12.8452 119.206 25.0402 119.206 37.2351L119.209 43.5165Z" fill="white"/>
    </mask>
</defs>

<g>
<path d="M1.69409 49.8366C1.69409 38.9464 1.69409 28.0553 1.69409 17.1636C1.69409 16.1223 1.69409 15.0812 1.69409 14.0402C1.69409 11.6331 2.27245 9.36718 3.45235 7.27553C5.53208 3.5854 8.65985 1.27444 12.7726 0.31672C13.715 0.101642 14.6789 -0.00457109 15.6454 0.000150756C38.3713 0.00218494 61.0973 0.00282062 83.8232 0.0020578C84.3055 0.0020578 84.2735 -0.0452369 84.2735 0.439916C84.2735 9.4755 84.2735 18.5111 84.2735 27.5467C84.2735 28.0425 84.3085 27.999 83.7974 27.999H40.1219C36.7834 27.999 33.4449 27.999 30.1062 27.999C29.5313 27.999 29.5894 27.9323 29.5928 28.5174C29.5985 29.498 29.5168 30.4763 29.5412 31.4573C29.5564 32.0553 29.5438 32.6541 29.5438 33.2525C29.5438 33.3361 29.5412 33.4204 29.5457 33.5039C29.5609 33.7907 29.5917 33.8186 29.8877 33.8228C29.9949 33.8228 30.1024 33.8228 30.2096 33.8228C42.6936 33.8228 55.1774 33.8228 67.6611 33.8228C68.2923 33.8228 68.2193 33.7327 68.2197 34.3666C68.2212 43.3305 68.2212 52.2944 68.2197 61.2583C68.2197 61.8964 68.2798 61.8182 67.671 61.8182C55.1751 61.8182 42.6794 61.8189 30.1837 61.8205C29.5028 61.8205 29.5906 61.7255 29.5906 62.4021C29.5883 70.3609 29.5883 78.3196 29.5906 86.2783C29.5906 86.4218 29.5864 86.5652 29.5799 86.7086C29.5769 86.778 29.5282 86.8138 29.4659 86.8253C29.4187 86.8321 29.3711 86.8353 29.3234 86.8348C29.228 86.8367 29.1334 86.8348 29.0373 86.8348H2.24737C2.11627 86.8348 1.98479 86.8348 1.85407 86.8276C1.74539 86.8211 1.70929 86.7826 1.70207 86.6697C1.69409 86.5533 1.69409 86.4336 1.69409 86.313C1.69409 83.6203 1.69409 80.9275 1.69409 78.2348V49.8366Z" fill="white"/>
<path xmlns="http://www.w3.org/2000/svg" d="M119.209 43.5165C119.209 57.8067 119.209 72.0959 119.209 86.3842C119.209 86.5395 119.209 86.6955 119.2 86.8503C119.195 86.9518 119.144 86.9983 119.04 87.0052C118.936 87.012 118.826 87.0113 118.719 87.0113C114.259 87.0113 109.8 87.0338 105.341 87.0052C101.709 86.9819 98.5284 85.7309 95.8483 83.2674C93.6063 81.2078 92.2049 78.6546 91.5874 75.6697C91.4073 74.7899 91.3182 73.8938 91.3214 72.9956C91.3214 71.4162 91.3381 69.836 91.3161 68.257C91.2974 66.9049 91.2959 65.5532 91.2944 64.2011C91.2944 63.5069 91.3016 62.8132 91.3031 62.119C91.3031 61.6483 91.3164 61.6884 90.8779 61.6884C86.0489 61.6884 81.22 61.6884 76.3912 61.6884H76.1051C75.7547 61.6884 75.7593 61.6983 75.7593 61.3249C75.7593 60.3673 75.7593 59.4098 75.7593 58.4525C75.7593 50.3865 75.7593 42.3204 75.7593 34.2544C75.7593 33.6216 75.6833 33.6926 76.3046 33.6926C81.1214 33.6905 85.9384 33.6905 90.7556 33.6926C90.8627 33.6926 90.9703 33.6949 91.0774 33.6926C91.2936 33.6857 91.3111 33.6678 91.3187 33.4366C91.3229 33.305 91.3187 33.1735 91.3187 33.0419V0.689604C91.3187 0.558017 91.3168 0.42605 91.3187 0.294845C91.3256 0.0183233 91.3354 0.00878809 91.5961 0.00268555C91.6558 0.00268555 91.7154 0.00268555 91.7751 0.00268555H118.745C118.841 0.00268555 118.935 0.00268555 119.031 0.00611823C119.16 0.013365 119.194 0.0442591 119.201 0.183855C119.208 0.339088 119.206 0.494703 119.206 0.650318C119.206 12.8452 119.206 25.0402 119.206 37.2351L119.209 43.5165Z" fill="white"/>
</g>
</svg>