<svg id="Main" width="100%" height="100%" viewBox="0 0 224 109" fill="none" xmlns="http://www.w3.org/2000/svg">
<path d="M9.79395 107V37.9751H1.51758V33.0645L20.0015 27.5469V107H9.79395Z" fill="#333333"/>
<path d="M48.4722 67.3286C48.4722 88.6265 56.252 99.2754 71.8115 99.2754C86.9665 99.2754 94.5439 88.6265 94.5439 67.3286C94.5439 46.325 86.9665 35.8232 71.8115 35.8232C56.252 35.8232 48.4722 46.325 48.4722 67.3286ZM37.7129 67.6597C37.7129 40.9178 49.0791 27.5469 71.8115 27.5469C94.1393 27.5469 105.303 40.9178 105.303 67.6597C105.303 94.2544 94.1393 107.552 71.8115 107.552C49.0791 107.552 37.7129 94.2544 37.7129 67.6597Z" fill="#333333"/>
<path d="M12.207 15.5117C11.0026 15.9023 9.70052 16.0977 8.30078 16.0977C3.41797 16.0977 0.976562 13.6725 0.976562 8.82227C0.976562 4.23242 3.41797 1.9375 8.30078 1.9375C9.70052 1.9375 11.0026 2.13281 12.207 2.52344V4.08594C11.0026 3.63021 9.76562 3.40234 8.49609 3.40234C4.6875 3.40234 2.7832 5.20898 2.7832 8.82227C2.7832 12.696 4.6875 14.6328 8.49609 14.6328C9.76562 14.6328 11.0026 14.4049 12.207 13.9492V15.5117Z" fill="#A0A0A0"/>
<path d="M15 16V5.74609H24.0332V16H22.2266V7.21094H16.8066V16H15Z" fill="#A0A0A0"/>
<path d="M31.2012 5.74609C34.1178 5.74609 35.5762 7.18815 35.5762 10.0723C35.5762 10.4824 35.5469 10.9219 35.4883 11.3906H28.291C28.291 13.487 29.515 14.5352 31.9629 14.5352C33.1283 14.5352 34.1634 14.4049 35.0684 14.1445V15.6094C34.1634 15.8698 33.0632 16 31.7676 16C28.2454 16 26.4844 14.252 26.4844 10.7559C26.4844 7.41602 28.0566 5.74609 31.2012 5.74609ZM28.291 9.88672H33.8379C33.7988 8.08984 32.9199 7.19141 31.2012 7.19141C29.3783 7.19141 28.4082 8.08984 28.291 9.88672Z" fill="#A0A0A0"/>
<path d="M38.0078 16V5.74609H39.8145V14.5352H45.4883V5.74609H47.2949V14.5352H49.1016V19.7109H47.2949V16H38.0078Z" fill="#A0A0A0"/>
<path d="M58.8672 16V8.07031L53.3496 16H51.543V5.74609H53.252V13.6758L58.7695 5.74609H60.5762V16H58.8672Z" fill="#A0A0A0"/>
<path d="M63.0273 12.9043C63.0273 10.8014 64.4141 9.75 67.1875 9.75C68.0794 9.75 68.9714 9.8151 69.8633 9.94531V8.97852C69.8633 7.80013 68.9421 7.21094 67.0996 7.21094C66.0449 7.21094 64.9642 7.3737 63.8574 7.69922V6.23438C64.9642 5.90885 66.0449 5.74609 67.0996 5.74609C70.1465 5.74609 71.6699 6.80729 71.6699 8.92969V16H70.6543L70.0293 14.9844C69.0072 15.6615 67.8939 16 66.6895 16C64.248 16 63.0273 14.9681 63.0273 12.9043ZM67.1875 11.2148C65.6185 11.2148 64.834 11.7682 64.834 12.875C64.834 13.9818 65.4525 14.5352 66.6895 14.5352C67.9395 14.5352 68.9974 14.2031 69.8633 13.5391V11.4102C68.9714 11.2799 68.0794 11.2148 67.1875 11.2148Z" fill="#A0A0A0"/>
<path d="M73.1445 14.5352C74.6875 14.5352 75.459 13.6562 75.459 11.8984V5.74609H83.2715V16H81.4648V7.21094H77.2656V11.8984C77.2656 14.6328 75.8919 16 73.1445 16V14.5352Z" fill="#A0A0A0"/>
<path d="M93.5352 16V8.07031L88.0176 16H86.2109V5.74609H87.9199V13.6758L93.4375 5.74609H95.2441V16H93.5352Z" fill="#A0A0A0"/>
<path d="M105.898 15.707C105.052 15.9023 104.141 16 103.164 16C99.5182 16 97.6953 14.2259 97.6953 10.6777C97.6953 7.38997 99.5182 5.74609 103.164 5.74609C104.141 5.74609 105.052 5.84375 105.898 6.03906V7.50391C105.052 7.30859 104.108 7.21094 103.066 7.21094C100.69 7.21094 99.502 8.36654 99.502 10.6777C99.502 13.2493 100.69 14.5352 103.066 14.5352C104.108 14.5352 105.052 14.4375 105.898 14.2422V15.707Z" fill="#A0A0A0"/>
<path d="M115.771 5.74609V7.21094H112.158V16H110.352V7.21094H106.738V5.74609H115.771Z" fill="#A0A0A0"/>
<path d="M127.256 16V5.74609H129.062V16H127.256ZM119.053 5.74609V14.5059H122.158C123.317 14.5059 123.896 13.9557 123.896 12.8555C123.896 11.9635 123.304 11.5176 122.119 11.5176H120.381V10.0527H122.207C124.551 10.0527 125.723 11.0163 125.723 12.9434C125.723 14.9811 124.59 16 122.324 16H117.246V5.74609H119.053Z" fill="#A0A0A0"/>
<path d="M144.59 15.707C143.743 15.9023 142.832 16 141.855 16C138.21 16 136.387 14.2259 136.387 10.6777C136.387 7.38997 138.21 5.74609 141.855 5.74609C142.832 5.74609 143.743 5.84375 144.59 6.03906V7.50391C143.743 7.30859 142.799 7.21094 141.758 7.21094C139.382 7.21094 138.193 8.36654 138.193 10.6777C138.193 13.2493 139.382 14.5352 141.758 14.5352C142.799 14.5352 143.743 14.4375 144.59 14.2422V15.707Z" fill="#A0A0A0"/>
<path d="M161.699 10.9219C161.699 14.3724 160.013 16.0977 156.641 16.0977C153.236 16.0977 151.533 14.3724 151.533 10.9219V7.74805C151.533 3.93945 153.304 2.03516 156.846 2.03516C158.747 2.03516 160.254 1.68034 161.367 0.970703V2.5625C160.371 3.1875 158.854 3.5 156.816 3.5C154.531 3.5 153.389 4.88346 153.389 7.65039C154.229 6.38086 155.345 5.74609 156.738 5.74609C160.046 5.74609 161.699 7.39974 161.699 10.707V10.9219ZM156.641 14.6328C158.802 14.6328 159.883 13.3958 159.883 10.9219C159.883 8.48698 158.835 7.26953 156.738 7.26953C154.505 7.26953 153.389 8.48698 153.389 10.9219C153.389 13.3958 154.473 14.6328 156.641 14.6328Z" fill="#A0A0A0"/>
<path d="M163.77 10.873C163.77 7.38997 165.462 5.64844 168.848 5.64844C172.233 5.64844 173.926 7.38997 173.926 10.873C173.926 14.3561 172.233 16.0977 168.848 16.0977C165.475 16.0977 163.783 14.3561 163.77 10.873ZM165.576 10.834C165.576 13.3665 166.667 14.6328 168.848 14.6328C171.029 14.6328 172.119 13.3665 172.119 10.834C172.119 8.35352 171.029 7.11328 168.848 7.11328C166.667 7.11328 165.576 8.35352 165.576 10.834Z" fill="#A0A0A0"/>
<path d="M174.902 14.5352C176.445 14.5352 177.217 13.6562 177.217 11.8984V5.74609H185.029V16H183.223V7.21094H179.023V11.8984C179.023 14.6328 177.65 16 174.902 16V14.5352Z" fill="#A0A0A0"/>
<path d="M192.197 5.74609C195.114 5.74609 196.572 7.18815 196.572 10.0723C196.572 10.4824 196.543 10.9219 196.484 11.3906H189.287C189.287 13.487 190.511 14.5352 192.959 14.5352C194.124 14.5352 195.16 14.4049 196.064 14.1445V15.6094C195.16 15.8698 194.059 16 192.764 16C189.242 16 187.48 14.252 187.48 10.7559C187.48 7.41602 189.053 5.74609 192.197 5.74609ZM189.287 9.88672H194.834C194.795 8.08984 193.916 7.19141 192.197 7.19141C190.374 7.19141 189.404 8.08984 189.287 9.88672Z" fill="#A0A0A0"/>
<path d="M203.232 5.74609C206.149 5.74609 207.607 7.18815 207.607 10.0723C207.607 10.4824 207.578 10.9219 207.52 11.3906H200.322C200.322 13.487 201.546 14.5352 203.994 14.5352C205.16 14.5352 206.195 14.4049 207.1 14.1445V15.6094C206.195 15.8698 205.094 16 203.799 16C200.277 16 198.516 14.252 198.516 10.7559C198.516 7.41602 200.088 5.74609 203.232 5.74609ZM200.322 9.88672H205.869C205.83 8.08984 204.951 7.19141 203.232 7.19141C201.41 7.19141 200.439 8.08984 200.322 9.88672Z" fill="#A0A0A0"/>
<path d="M123.033 27.7461V29.2109H119.42V38H117.613V29.2109H114V27.7461H123.033Z" fill="#A0A0A0"/>
<path d="M131.832 38V30.0703L126.314 38H124.508V27.7461H126.217V35.6758L131.734 27.7461H133.541V38H131.832Z" fill="#A0A0A0"/>
<path d="M114 79.4844C120.469 79.4844 123.703 74.4062 123.703 64.25V49.4844H145.734V83H141.398V53H128.039V64.25C128.039 76.75 123.359 83 114 83V79.4844Z" fill="#333333"/>
<path d="M175.617 49.4844V53H158.039V64.25H174.797V67.7656H158.039V79.4844H175.969V83H153.703V49.4844H175.617Z" fill="#333333"/>
<path d="M205.148 49.4844V53H194.602V83H190.266V53H179.719V49.4844H205.148Z" fill="#333333"/>
<path d="M114.977 102.873C114.977 99.39 116.669 97.6484 120.055 97.6484C123.44 97.6484 125.133 99.39 125.133 102.873C125.133 106.356 123.44 108.098 120.055 108.098C116.682 108.098 114.99 106.356 114.977 102.873ZM116.783 102.834C116.783 105.367 117.874 106.633 120.055 106.633C122.236 106.633 123.326 105.367 123.326 102.834C123.326 100.354 122.236 99.1133 120.055 99.1133C117.874 99.1133 116.783 100.354 116.783 102.834Z" fill="#A0A0A0"/>
<path d="M127.574 108V97.7461H136.607V108H134.801V99.2109H129.381V108H127.574Z" fill="#A0A0A0"/>
<path d="M149.557 108V97.7461H151.363V108H149.557ZM141.354 97.7461V106.506H144.459C145.618 106.506 146.197 105.956 146.197 104.855C146.197 103.964 145.605 103.518 144.42 103.518H142.682V102.053H144.508C146.852 102.053 148.023 103.016 148.023 104.943C148.023 106.981 146.891 108 144.625 108H139.547V97.7461H141.354Z" fill="#A0A0A0"/>
<path d="M161.861 97.7461V99.2109H158.248V108H156.441V99.2109H152.828V97.7461H161.861Z" fill="#A0A0A0"/>
<path d="M162.848 104.904C162.848 102.801 164.234 101.75 167.008 101.75C167.9 101.75 168.792 101.815 169.684 101.945V100.979C169.684 99.8001 168.762 99.2109 166.92 99.2109C165.865 99.2109 164.785 99.3737 163.678 99.6992V98.2344C164.785 97.9089 165.865 97.7461 166.92 97.7461C169.967 97.7461 171.49 98.8073 171.49 100.93V108H170.475L169.85 106.984C168.827 107.661 167.714 108 166.51 108C164.068 108 162.848 106.968 162.848 104.904ZM167.008 103.215C165.439 103.215 164.654 103.768 164.654 104.875C164.654 105.982 165.273 106.535 166.51 106.535C167.76 106.535 168.818 106.203 169.684 105.539V103.41C168.792 103.28 167.9 103.215 167.008 103.215Z" fill="#A0A0A0"/>
</svg>
