<svg id="Main" width="267" height="55" viewBox="0 0 267 55" stroke="none" xmlns="http://www.w3.org/2000/svg">
<path d="M141.153 0.194828C137.504 0.854149 135.257 2.85926 134.345 6.238C134.222 6.73238 134.1 7.87227 134.059 9.05335C133.978 11.4019 134.25 13.105 134.958 14.5883C136.074 16.9367 138.375 18.475 141.508 18.9552C142.924 19.1751 146.764 19.0377 147.907 18.7355C149.991 18.1861 151.706 17.005 152.7 15.4531C154.089 13.283 154.525 9.14906 153.694 5.97644C152.918 2.98257 150.658 0.949856 147.363 0.263158C145.837 -0.0522477 142.692 -0.093427 141.153 0.194828ZM146.926 1.56822C148.86 2.02074 150.521 3.2301 151.338 4.74084C152.033 6.03188 152.318 7.40527 152.318 9.46537C152.318 12.4045 151.705 14.2587 150.249 15.7282C148.833 17.1566 147.008 17.7614 144.094 17.7614C141.194 17.7614 139.342 17.1435 137.899 15.7151C136.497 14.3417 135.789 12.2816 135.789 9.56221C135.789 4.65916 137.926 1.99472 142.392 1.37681C143.59 1.21119 145.769 1.30735 146.926 1.56822H146.926Z"/>
<path d="M196.162 0.194816C192.513 0.854137 190.266 2.85925 189.354 6.23799C189.231 6.73236 189.109 7.87226 189.068 9.05333C188.987 11.4019 189.259 13.105 189.967 14.5883C191.083 16.9367 193.384 18.475 196.517 18.9551C197.933 19.1751 201.772 19.0377 202.916 18.7354C205 18.1861 206.715 17.005 207.709 15.4531C209.098 13.283 209.534 9.14904 208.703 5.97643C207.926 2.98301 205.666 0.950297 202.371 0.263599C200.846 -0.0522597 197.701 -0.093439 196.162 0.194816ZM201.935 1.56821C203.869 2.02073 205.53 3.23009 206.347 4.74083C207.042 6.03186 207.327 7.40526 207.327 9.46535C207.327 12.4045 206.715 14.2587 205.258 15.7282C203.841 17.1566 202.017 17.7607 199.103 17.7607C196.203 17.7607 194.351 17.1428 192.908 15.7144C191.505 14.341 190.797 12.2809 190.797 9.56151C190.797 4.65847 192.935 1.99403 197.401 1.37612C198.6 1.21117 200.778 1.30733 201.935 1.56821Z"/>
<path d="M0.854106 9.53416V18.942H5.82468C8.94264 18.942 11.0532 18.8871 11.5025 18.7909C13.2589 18.4201 14.5796 17.3487 15.1516 15.838C15.5873 14.6981 15.6146 12.5694 15.1925 11.6492C14.6887 10.5093 13.3679 9.49298 12.0608 9.24568C11.8156 9.2045 11.6122 9.12214 11.6122 9.06716C11.6122 9.02598 11.9525 8.83366 12.3749 8.65514C13.3551 8.22932 14.3901 7.26794 14.8529 6.38892C15.1669 5.78458 15.207 5.52371 15.207 4.45259C15.207 3.49099 15.1525 3.07897 14.9347 2.5984C14.3885 1.40284 13.2046 0.565678 11.612 0.263621C11.2158 0.181037 8.66964 0.126282 5.87851 0.126282H0.853882L0.854106 9.53416ZM10.6441 1.51348C12.387 1.78748 13.3392 2.62577 13.5859 4.08175C13.9809 6.48508 11.5844 8.31281 7.54046 8.7237L6.57366 8.81986V9.83622L8.24861 9.91858C11.9383 10.1109 13.6268 11.1546 13.7629 13.3803C13.9128 15.6328 12.7145 17.1297 10.4543 17.5555C10.0057 17.6379 8.0714 17.7067 6.06985 17.7067H2.48801V1.36234H6.13714C8.13869 1.36234 10.1674 1.4309 10.6441 1.51348Z"/>
<path d="M19.5078 9.53416V18.942H21.1417V9.8774H33.5324V18.942H35.1663V0.126282H33.5324V8.64134H21.1419V0.126282H19.5078V9.53416Z"/>
<path d="M39.3875 9.53416V18.942H43.3769C45.5554 18.942 48.5919 18.9832 50.1168 19.0382L52.8674 19.1206V17.706H41.0213V10.0147H52.1866V8.77891H41.0213V1.36234H52.7305V0.126282H39.3875V9.53416Z"/>
<path d="M56.9519 9.60272V19.0794H77.5121V0.126282H75.8777V17.7067H67.9819V0.126282H66.4839V17.7067H58.5858V0.126282H56.9519V9.60272Z"/>
<path d="M81.8691 9.60272V19.0794H83.503V9.8774H95.8937V19.0794H97.5276V0.126282H95.8937V8.64134H83.503V0.126282H81.8691V9.60272Z"/>
<path d="M101.885 9.60272V19.0794H115.365V17.706H103.519V10.0147H114.684V8.77891H103.519V1.36234H115.228V0.126282H101.885V9.60272Z"/>
<path d="M117.271 0.744197V1.36234H123.943V19.0785H125.576V1.36234H132.385V0.126282H117.271V0.744197Z"/>
<path d="M157.846 9.60269V19.0794H159.479V1.49898H163.415C167.812 1.49898 168.303 1.56685 169.269 2.40537C170.277 3.28439 170.727 4.93247 170.318 6.34704C169.759 8.31098 167.431 9.657 163.523 10.2887L162.461 10.4672L162.543 10.8931C162.747 11.8682 162.706 11.8406 163.496 11.7447C164.885 11.5798 167.444 10.8245 168.67 10.2202C170.277 9.4235 171.189 8.61371 171.761 7.43218C172.183 6.58054 172.209 6.4294 172.197 5.13859C172.169 2.43298 171.107 0.976995 168.643 0.331476C168.016 0.166759 166.859 0.12558 162.856 0.12558H157.846V9.60269Z"/>
<path d="M175.547 9.60272V19.0794H177.181V1.36324H187.666V0.126282H175.547V9.60272Z"/>
<path d="M212.855 9.61607V19.1068L217.866 19.0389C223.121 18.971 223.72 18.9015 225.001 18.2696C225.872 17.844 226.771 16.8276 227.152 15.8387C227.588 14.6988 227.615 12.5701 227.193 11.6499C226.689 10.51 225.368 9.49366 224.061 9.24636C223.816 9.20518 223.612 9.12282 223.612 9.06784C223.612 9.02666 223.953 8.83434 224.375 8.65582C225.355 8.23 226.39 7.26862 226.853 6.3896C227.167 5.78526 227.207 5.52439 227.207 4.45327C227.207 3.49167 227.153 3.07965 226.935 2.59907C226.389 1.40284 225.205 0.565678 223.611 0.263621C223.216 0.181263 220.67 0.126282 217.878 0.126282H212.854L212.855 9.61607ZM222.646 1.51348C224.389 1.78816 225.342 2.62577 225.587 4.08175C225.982 6.48508 223.586 8.31281 219.542 8.7237L218.575 8.81986V9.83622L220.25 9.91857C223.94 10.1109 225.628 11.1546 225.764 13.3803C225.914 15.6328 224.716 17.1297 222.456 17.5555C222.007 17.6379 220.073 17.7067 218.071 17.7067H214.49V1.36234H218.137C220.14 1.36234 222.168 1.43089 222.646 1.51348Z"/>
<path d="M231.509 9.60272V19.0794H235.634C242.088 19.0656 243.286 18.8597 244.648 17.5137C245.546 16.6346 245.928 15.6459 246.036 13.9976C246.214 11.3051 245.097 9.4104 242.891 8.64134C241.72 8.21575 240.576 8.09198 237.881 8.09198H235.321V9.438L238.289 9.49298C241.693 9.56086 242.115 9.6577 243.205 10.6469C244.076 11.4433 244.375 12.1988 244.375 13.6546C244.375 15.0553 244.076 15.852 243.286 16.5937C242.292 17.5139 241.828 17.5962 237.2 17.6797L233.144 17.7334V0.126282H231.51L231.509 9.60272Z"/>
<path d="M248.665 9.60272V19.0794H250.299V0.126282H248.665V9.60272Z"/>
<path d="M254.521 9.60272V19.0794H268.001V17.706H256.155V10.0147H267.32V8.77891H256.155V1.36234H267.864V0.126282H254.521V9.60272Z"/>
<path d="M24.5996 31.3714C20.9505 32.0305 18.704 34.0358 17.7917 37.4143C17.669 37.9087 17.5465 39.0488 17.5057 40.2299C17.4241 42.5785 17.6964 44.2815 18.4043 45.7647C19.5209 48.1132 21.8219 49.6513 24.9543 50.1315C26.3704 50.3512 30.2102 50.2138 31.3539 49.9118C33.4371 49.3624 35.1527 48.1811 36.1466 46.6292C37.5356 44.4594 37.9712 40.3254 37.1406 37.1528C36.3647 34.1587 34.1042 32.1259 30.8093 31.4392C29.2842 31.1241 26.1389 31.0829 24.5996 31.3714ZM30.3728 32.7448C32.3064 33.1973 33.9674 34.4066 34.7844 35.9174C35.4797 37.2084 35.7648 38.5818 35.7648 40.6419C35.7648 43.581 35.152 45.435 33.6951 46.9046C32.279 48.3329 30.4544 48.9373 27.5406 48.9373C24.6404 48.9373 22.7887 48.3194 21.3455 46.891C19.9429 45.5176 19.2349 43.4573 19.2349 40.7381C19.2349 35.835 21.3727 33.1706 25.8387 32.5524C27.0377 32.3877 29.2162 32.4839 30.3735 32.7448H30.3728Z" />
<path d="M0.854004 40.7792V50.2557H2.48791V31.3026H0.854004V40.7792Z"/>
<path d="M12.4686 31.6599C11.4746 32.1543 10.1674 33.61 9.14628 35.368C7.67567 37.8813 5.7966 39.5432 4.43569 39.5432C4.00007 39.5432 3.98706 39.5568 3.98706 40.0788V40.6008L4.79055 40.7655C6.43791 41.0951 7.52718 42.2762 11.2853 47.8524L12.9055 50.2421L13.9677 50.2557C14.5803 50.2557 15.0161 50.2007 15.0161 50.1184C15.0161 49.9536 11.3941 44.7621 10.1279 43.114C9.02514 41.6719 8.0855 40.7383 7.36388 40.3811L6.81925 40.12L7.21403 39.9003C7.92219 39.5432 9.24295 37.9637 10.1961 36.3568C11.3941 34.3379 12.6198 33.0745 13.6545 32.7593C14.0493 32.6355 14.6756 32.5393 15.0433 32.5393H15.6969V31.3033H14.4293C13.3391 31.3026 13.0677 31.3576 12.4686 31.6599Z"/>
<path d="M41.1575 40.7792V50.2557H42.6552L42.6826 42.2488L42.7234 34.2417L46.8218 42.1382L50.9203 50.0491L51.6554 50.0903L52.3907 50.1177L56.2713 42.1793L60.1519 34.2274L60.1927 42.1793L60.2199 50.1177H61.5815V31.3019H60.1519L55.9445 39.7765C52.3227 47.0828 51.7235 48.2092 51.6011 47.9757C51.5192 47.8383 49.5042 44.034 47.135 39.543L42.8322 31.3711L41.9881 31.33L41.1581 31.2888L41.1575 40.7792Z"/>
<path d="M66.0752 40.7105V50.1183H67.5729L67.6003 42.18L67.6411 34.2417L71.7396 42.1382L75.838 50.0491L76.5733 50.0903L77.3084 50.1177L81.189 42.1793L85.0696 34.2274L85.1105 42.1793L85.1376 50.1177H86.4992V31.3019H85.0696L80.8615 39.7765C77.2397 47.0828 76.6406 48.2091 76.5181 47.9756C76.4365 47.8383 74.4212 44.034 72.052 39.543L67.7495 31.3711L66.9052 31.3302L66.0752 31.289V40.7105Z"/>
<path d="M89.3989 31.4811C89.4397 31.5911 91.4005 35.0246 93.756 39.1312C97.9361 46.3964 98.0451 46.6163 97.8681 46.9733C97.5684 47.5501 96.8468 48.2094 96.166 48.5252C95.6893 48.7449 95.2809 48.7999 94.2593 48.7999C92.9523 48.7999 92.8433 48.7725 91.0324 47.9628C90.8962 47.9078 90.8554 48.0865 90.8554 48.5809C90.8554 49.2538 90.8688 49.2676 91.4545 49.5561C92.4619 50.0229 93.2246 50.1602 94.695 50.0916C95.9204 50.0505 96.2064 49.9817 97.0097 49.6108C98.14 49.0753 99.0249 48.1825 99.6377 46.9602C99.8964 46.452 101.544 42.84 103.314 38.9122C105.098 34.9979 106.609 31.6741 106.677 31.5361C106.786 31.3026 106.732 31.289 105.887 31.3302L104.975 31.3714L102.061 37.9637C100.469 41.5895 99.1202 44.6659 99.052 44.8171C98.9704 45.0094 98.0989 43.581 95.0218 38.1834L91.0869 31.3026H90.2159C89.5351 31.3026 89.3444 31.3438 89.3989 31.4811Z" />
<path d="M109.237 40.7105V50.1183H110.871V41.0539H123.262V50.1183H124.896V31.3026H123.262V39.8179H110.871V31.3026H109.237L109.237 40.7105Z"/>
<path d="M129.253 40.7105V50.1183L130.179 50.1048H131.091L137.218 41.9191L143.345 33.7473L143.386 41.9329L143.413 50.1183H145.047V31.3026H144.135L143.209 31.3164L137.082 39.4882L130.955 47.66L130.914 39.4882L130.887 31.3026H129.253V40.7105Z"/>
<path d="M149.269 40.7105V50.1183H150.902V31.3026H149.269V40.7105Z"/>
<path d="M160.883 31.6599C159.889 32.1542 158.582 33.61 157.561 35.368C156.09 37.8813 154.211 39.5432 152.85 39.5432C152.414 39.5432 152.401 39.5568 152.401 40.0788V40.6007L153.205 40.7654C154.839 41.0951 155.832 42.1665 159.659 47.7698L161.265 50.1183H162.355C162.94 50.1183 163.43 50.091 163.43 50.0505C163.43 49.9405 159.509 44.3781 158.542 43.1147C157.439 41.6725 156.501 40.739 155.778 40.3817L155.234 40.1206L155.628 39.9009C156.336 39.5439 157.657 37.9644 158.61 36.3575C159.808 34.3385 161.033 33.0751 162.069 32.7599C162.464 32.6362 163.09 32.54 163.458 32.54H164.111V31.3039H162.844C161.754 31.3026 161.482 31.3576 160.883 31.6599Z"/>
<path d="M169.57 40.1887C167.214 45.0917 165.172 49.3219 165.036 49.6102L164.777 50.1321L165.676 50.091L166.574 50.0498L170.605 41.4248C172.824 36.6864 174.69 32.8133 174.73 32.8133C174.812 32.8133 179.006 41.5895 179.319 42.3861C179.373 42.5235 178.543 42.5647 175.425 42.5647H171.463L171.326 42.9079C171.259 43.1002 171.149 43.4161 171.109 43.5946L171.027 43.9381L175.561 43.9654L180.095 44.0066L181.525 47.0557L182.968 50.1183H184.915L183.036 46.2316C182.001 44.1028 179.959 39.8864 178.488 36.8645L175.833 31.3709L174.839 31.3297L173.845 31.3021L169.57 40.1887Z"/>
<path d="M187.53 40.7793V50.2557H203.188V54.9255H204.685V48.8823H202.099V31.3019H200.465V48.8823H189.164V31.3019H187.53L187.53 40.7793Z"/>
<path d="M208.226 40.7792V50.2557H209.928L216.123 42.0015L222.318 33.7473L222.359 42.0015L222.386 50.2557H224.02V31.3026H223.108L222.182 31.3164L216.055 39.4882L209.928 47.66L209.887 39.4882L209.86 31.3026H208.226V40.7792Z"/>
<path d="M228.377 40.7792V50.2557H230.079L236.275 42.0015L242.47 33.7473L242.511 42.0015L242.538 50.2557H244.172V31.3026H243.261L242.335 31.3164L236.208 39.4882L230.08 47.66L230.04 39.4882L230.012 31.3026H228.379L228.377 40.7792Z"/>
</svg>
