<svg class="svg" id="Main" width="100%" height="100%" viewBox="0 0 598 118" xmlns="http://www.w3.org/2000/svg">

<mask id="MainMask"  maskUnits="userSpaceOnUse" >
<path d="M1.69409 49.8366C1.69409 38.9464 1.69409 28.0553 1.69409 17.1636C1.69409 16.1223 1.69409 15.0812 1.69409 14.0402C1.69409 11.6331 2.27245 9.36718 3.45235 7.27553C5.53208 3.5854 8.65985 1.27444 12.7726 0.31672C13.715 0.101642 14.6789 -0.00457109 15.6454 0.000150756C38.3713 0.00218494 61.0973 0.00282062 83.8232 0.0020578C84.3055 0.0020578 84.2735 -0.0452369 84.2735 0.439916C84.2735 9.4755 84.2735 18.5111 84.2735 27.5467C84.2735 28.0425 84.3085 27.999 83.7974 27.999H40.1219C36.7834 27.999 33.4449 27.999 30.1062 27.999C29.5313 27.999 29.5894 27.9323 29.5928 28.5174C29.5985 29.498 29.5168 30.4763 29.5412 31.4573C29.5564 32.0553 29.5438 32.6541 29.5438 33.2525C29.5438 33.3361 29.5412 33.4204 29.5457 33.5039C29.5609 33.7907 29.5917 33.8186 29.8877 33.8228C29.9949 33.8228 30.1024 33.8228 30.2096 33.8228C42.6936 33.8228 55.1774 33.8228 67.6611 33.8228C68.2923 33.8228 68.2194 33.7327 68.2197 34.3666C68.2213 43.3305 68.2213 52.2944 68.2197 61.2583C68.2197 61.8964 68.2798 61.8182 67.671 61.8182C55.1751 61.8182 42.6794 61.819 30.1837 61.8205C29.5028 61.8205 29.5906 61.7255 29.5906 62.4021C29.5883 70.3609 29.5883 78.3196 29.5906 86.2783C29.5906 86.4218 29.5864 86.5652 29.5799 86.7086C29.5769 86.778 29.5282 86.8138 29.4659 86.8253C29.4187 86.8321 29.3711 86.8353 29.3234 86.8348C29.228 86.8367 29.1334 86.8348 29.0373 86.8348H2.24737C2.11627 86.8348 1.98479 86.8348 1.85407 86.8276C1.74539 86.8211 1.70929 86.7826 1.70207 86.6697C1.69409 86.5533 1.69409 86.4336 1.69409 86.313C1.69409 83.6203 1.69409 80.9276 1.69409 78.2348V49.8366Z" fill="white"/>
<path d="M119.209 43.5165C119.209 57.8067 119.209 72.0959 119.209 86.3842C119.209 86.5395 119.209 86.6955 119.2 86.8503C119.195 86.9518 119.144 86.9983 119.04 87.0052C118.936 87.012 118.826 87.0113 118.719 87.0113C114.259 87.0113 109.8 87.0338 105.341 87.0052C101.709 86.9819 98.5284 85.7309 95.8483 83.2674C93.6063 81.2078 92.2049 78.6546 91.5874 75.6697C91.4073 74.7899 91.3182 73.8938 91.3214 72.9956C91.3214 71.4162 91.3381 69.836 91.3161 68.257C91.2974 66.9049 91.2959 65.5532 91.2944 64.2011C91.2944 63.5069 91.3016 62.8132 91.3031 62.119C91.3031 61.6483 91.3164 61.6884 90.8779 61.6884C86.0489 61.6884 81.22 61.6884 76.3912 61.6884H76.1051C75.7547 61.6884 75.7593 61.6983 75.7593 61.3249C75.7593 60.3673 75.7593 59.4098 75.7593 58.4525C75.7593 50.3865 75.7593 42.3204 75.7593 34.2544C75.7593 33.6216 75.6833 33.6926 76.3046 33.6926C81.1214 33.6905 85.9384 33.6905 90.7556 33.6926C90.8627 33.6926 90.9703 33.6949 91.0774 33.6926C91.2936 33.6857 91.3111 33.6678 91.3187 33.4366C91.3229 33.305 91.3187 33.1735 91.3187 33.0419V0.689604C91.3187 0.558017 91.3168 0.42605 91.3187 0.294845C91.3256 0.0183233 91.3354 0.00878809 91.5961 0.00268555C91.6558 0.00268555 91.7154 0.00268555 91.7751 0.00268555H118.745C118.841 0.00268555 118.935 0.00268555 119.031 0.00611823C119.16 0.013365 119.194 0.0442591 119.201 0.183855C119.208 0.339088 119.206 0.494703 119.206 0.650318C119.206 12.8452 119.206 25.0402 119.206 37.2351L119.209 43.5165Z" fill="white"/>
<path d="M91.2402 101.455C91.2402 97.8911 91.2402 94.3272 91.2402 90.7633C91.2402 90.56 91.2451 90.3568 91.2273 90.1531C91.2155 90.0211 91.2056 89.8861 91.0559 89.8258C90.9966 89.8236 90.937 89.8186 90.8773 89.8186C87.3362 89.8186 83.795 89.8186 80.2537 89.8186C79.8558 89.8186 79.8554 89.8216 79.7308 90.2053C78.9171 92.7081 78.1039 95.211 77.2912 97.7138C76.2211 101.001 75.1488 104.287 74.0741 107.573C74.0255 107.721 74.0441 107.913 73.867 108.003C73.753 107.886 73.7355 107.725 73.6884 107.58C72.797 104.851 71.9078 102.121 71.0208 99.3908C70.0361 96.365 69.0521 93.3391 68.0686 90.3133C67.8957 89.7835 67.958 89.8174 67.4093 89.8174C63.9992 89.8174 60.5891 89.8174 57.179 89.8174C57.0601 89.8174 56.9407 89.8216 56.8222 89.8304C56.8011 89.8303 56.7802 89.8343 56.7607 89.8423C56.7411 89.8503 56.7234 89.8621 56.7085 89.8771C56.6935 89.892 56.6817 89.9097 56.6736 89.9293C56.6655 89.9489 56.6614 89.9698 56.6614 89.991C56.6523 90.134 56.6493 90.2778 56.6493 90.4212C56.6493 94.1911 56.6493 97.9609 56.6493 101.731C56.6493 101.969 56.6421 102.208 56.6386 102.446C56.5748 101.999 56.5132 101.555 56.4486 101.111C56.191 99.2936 55.6544 97.5658 54.7964 95.9417C54.2967 94.9962 53.7073 94.111 52.9572 93.3481C51.6078 91.9716 50.0096 91.012 48.1536 90.4876C46.7746 90.1008 45.354 89.8831 43.9227 89.8392C42.5996 89.7934 41.2768 89.7908 39.9605 89.9784C38.9307 90.1256 37.9203 90.3495 36.9406 90.7031C35.2755 91.3053 33.7992 92.2135 32.5904 93.5144C31.3227 94.8787 30.3948 96.4604 29.7704 98.2195C29.7324 98.329 29.7241 98.4552 29.6226 98.5361C29.4596 98.4926 29.4744 98.3336 29.4326 98.2214C29.1832 97.5226 28.8852 96.8423 28.5408 96.1855C28.0281 95.219 27.4194 94.3185 26.6529 93.5373C25.6156 92.4724 24.3715 91.6325 22.9977 91.0696C21.4017 90.417 19.7297 90.123 18.0197 89.9845C17.2107 89.9189 16.4009 89.9048 15.5896 89.9113C14.5165 89.9189 13.4457 90.0147 12.3882 90.1977C10.9442 90.4487 9.56248 90.882 8.2644 91.5708C7.23727 92.11 6.30166 92.809 5.49231 93.6418C4.47809 94.6919 3.70366 95.9108 3.06754 97.2187C2.57354 98.2363 2.28208 99.3233 2.0632 100.43C1.89562 101.276 1.81012 102.132 1.74666 102.992C1.657 104.258 1.70363 105.53 1.88574 106.786C2.00658 107.641 2.21254 108.478 2.44852 109.307C3.11922 111.663 4.4363 113.583 6.35111 115.092C7.41207 115.929 8.60222 116.528 9.87028 116.976C11.6076 117.591 13.4088 117.844 15.2408 117.903C15.9913 117.928 16.7418 117.907 17.4927 117.86C18.3732 117.809 19.2498 117.705 20.1177 117.547C21.2243 117.339 22.2955 117.018 23.3051 116.51C24.5865 115.865 25.7132 115.012 26.7069 113.977C27.8267 112.809 28.705 111.431 29.2909 109.92C29.3433 109.787 29.392 109.653 29.4459 109.519C29.4672 109.467 29.4744 109.388 29.5527 109.397C29.6032 109.402 29.6089 109.465 29.6234 109.508C29.6348 109.543 29.6458 109.577 29.6553 109.611C29.9536 110.655 30.4153 111.624 31.0009 112.533C31.8889 113.91 33.0149 115.045 34.4034 115.917C36.2935 117.104 38.3763 117.69 40.5753 117.917C41.5386 118.017 42.5038 118.01 43.4694 117.996C44.4708 117.977 45.4692 117.878 46.4551 117.701C47.671 117.488 48.8433 117.132 49.9362 116.542C51.905 115.464 53.5463 113.871 54.6862 111.932C55.7228 110.158 56.2773 108.227 56.5072 106.194C56.5395 105.909 56.5649 105.622 56.5946 105.338C56.5977 105.327 56.6027 105.316 56.6094 105.306L56.6474 105.335V110.521C56.6474 112.819 56.6474 115.117 56.6474 117.415C56.6474 117.534 56.6474 117.654 56.6546 117.773C56.6618 117.892 56.7124 117.941 56.8355 117.954C56.9301 117.963 57.0255 117.963 57.1212 117.964C59.577 117.964 62.0332 117.964 64.4898 117.964C64.585 117.965 64.6803 117.962 64.7752 117.953C64.8956 117.94 64.9496 117.889 64.958 117.772C64.9678 117.629 64.9671 117.485 64.9671 117.341C64.9671 111.813 64.9671 106.284 64.9671 100.754C64.9671 100.623 64.9694 100.491 64.9739 100.36C64.9745 100.349 64.9776 100.338 64.9831 100.328C64.9886 100.318 64.9962 100.31 65.0055 100.304C65.0469 100.288 65.0697 100.321 65.0815 100.355C65.1575 100.595 65.2324 100.834 65.3064 101.074C66.3324 104.375 67.3584 107.677 68.3844 110.978C69.059 113.149 69.7337 115.319 70.4083 117.489C70.5603 117.972 70.52 117.963 71.0486 117.963C72.8979 117.963 74.7461 117.963 76.5931 117.963C77.1487 117.963 77.1004 117.971 77.2559 117.472C78.0232 115.006 78.7911 112.539 79.5594 110.071C80.1104 108.301 80.6613 106.53 81.212 104.76C81.6599 103.321 82.1096 101.882 82.561 100.444C82.5834 100.373 82.5747 100.276 82.6997 100.233C82.7016 100.402 82.7054 100.556 82.7054 100.71C82.7054 106.251 82.7054 111.792 82.7054 117.333C82.7054 117.476 82.7054 117.62 82.7142 117.763C82.7225 117.884 82.775 117.938 82.8909 117.951C82.9976 117.96 83.1048 117.964 83.212 117.963C86.1091 117.969 88.3017 117.976 91.1988 117.979L91.2391 116.769C91.2385 111.664 91.2389 106.559 91.2402 101.455ZM29.4767 99.191C29.468 99.2501 29.4531 99.3081 29.4387 99.3664C29.1903 100.389 29.0241 101.43 28.9417 102.48C28.8628 103.482 28.8501 104.489 28.9037 105.493C28.9609 106.485 29.1109 107.469 29.3517 108.433C29.3802 108.547 29.4068 108.666 29.4277 108.783C29.4323 108.801 29.4327 108.819 29.4289 108.837C29.4252 108.854 29.4173 108.871 29.406 108.885C29.3947 108.899 29.3803 108.911 29.3638 108.918C29.3474 108.926 29.3295 108.929 29.3114 108.929C29.2046 108.937 29.0971 108.939 28.9899 108.939C27.7993 108.939 26.6076 108.939 25.4149 108.939H21.9482C21.8528 108.939 21.7582 108.947 21.6624 108.939C21.4561 108.92 21.3367 109.006 21.2471 109.196C20.8108 110.122 20.123 110.817 19.2555 111.344C18.7645 111.642 18.226 111.852 17.6637 111.965C16.4397 112.215 15.2188 112.204 14.0275 111.803C12.7127 111.361 11.6802 110.552 10.9966 109.324C10.3853 108.224 9.97357 107.024 9.7806 105.78C9.65164 104.952 9.6091 104.113 9.65368 103.277C9.72968 101.753 10.0607 100.293 10.7937 98.9419C11.114 98.3507 11.4872 97.7977 11.961 97.3175C12.797 96.4704 13.8162 95.9898 14.9797 95.809C15.8104 95.6801 16.6434 95.6786 17.468 95.8605C19.1381 96.2289 20.3848 97.1626 21.1802 98.6902C21.1924 98.7108 21.2032 98.7322 21.2125 98.7542C21.282 98.9556 21.431 99.0212 21.6305 99.0109C21.7376 99.0048 21.8452 99.0109 21.9523 99.0109H28.9595C29.0906 99.0109 29.2221 99.0109 29.3524 99.0208C29.4547 99.0247 29.4934 99.0834 29.4767 99.191ZM47.9401 108.965C47.5054 110.004 46.8191 110.817 45.8672 111.409C45.3695 111.719 44.8196 111.935 44.2446 112.046C43.1019 112.271 41.9646 112.253 40.8561 111.877C39.5607 111.438 38.5655 110.618 37.9024 109.413C37.2691 108.257 36.8548 106.993 36.6803 105.685C36.5783 104.987 36.5369 104.281 36.5568 103.575C36.6055 102.215 36.8164 100.886 37.3408 99.6208C37.5765 99.0448 37.8736 98.4961 38.2269 97.9842C39.0648 96.7805 40.1908 96.0176 41.6412 95.7621C42.3225 95.6386 43.0189 95.6231 43.705 95.7163C44.4471 95.8201 45.1441 96.0478 45.779 96.449C46.6775 97.0069 47.3884 97.8227 47.8196 98.7909C48.2996 99.8538 48.6499 100.955 48.8152 102.112C48.8532 102.373 48.8912 102.634 48.9095 102.896C48.9326 103.253 48.9353 103.613 48.9475 103.971C48.9585 105.706 48.6104 107.367 47.9401 108.965Z" fill="white"/>
<path d="M116.53 95.6553H92.6699V112.129H116.53V95.6553Z" fill="none"/>
<path d="M119.205 90.171C119.205 90.0753 119.205 89.9803 119.196 89.8842C119.188 89.7831 119.142 89.7374 119.035 89.7317C118.892 89.7229 118.749 89.7229 118.606 89.7233C113.767 89.7408 108.928 89.7084 104.09 89.745C99.93 89.7767 95.7698 89.7515 91.6099 89.7519C91.4906 89.7519 91.3714 89.7526 91.2523 89.7542C91.2166 89.7519 91.1807 89.757 91.1471 89.7693C91.1134 89.7816 91.0826 89.8007 91.0566 89.8255C91.0616 89.9689 91.0707 90.1123 91.0711 90.2557C91.0726 91.1291 91.0726 92.0024 91.0711 92.8756V98.1516C91.0711 99.0369 91.0775 99.9222 91.0692 100.807C91.0612 101.68 91.0764 102.552 91.0749 103.425C91.0665 108.067 91.0653 112.709 91.0711 117.35C91.0711 117.446 91.0684 117.541 91.0753 117.637C91.0897 117.841 91.1395 117.892 91.3337 117.904C91.4287 117.911 91.5237 117.908 91.6194 117.908C96.3276 117.908 101.036 117.908 105.744 117.908C105.839 117.908 105.934 117.919 106.029 117.924C106.854 117.892 107.663 117.754 108.463 117.559C114.543 116.08 119.15 110.64 119.199 103.919C119.232 99.3355 119.205 94.7533 119.205 90.171ZM101.9 101.97C101.898 102.286 101.845 102.262 101.621 102.177C101.4 102.085 101.162 102.041 100.923 102.045C100.421 102.066 100.066 102.304 99.8643 102.766C99.7229 103.09 99.6902 103.436 99.6682 103.783C99.6594 103.926 99.6644 104.07 99.6644 104.213C99.6644 105.865 99.6644 107.516 99.6644 109.168C99.6644 109.633 99.6891 109.616 99.2107 109.618C97.9111 109.622 96.6115 109.618 95.3119 109.618C95.264 109.618 95.2161 109.618 95.1686 109.615C94.8612 109.603 94.8521 109.598 94.8513 109.282C94.849 108.145 94.849 107.008 94.8513 105.871V102.927C94.8513 102.264 94.9345 101.612 95.1416 100.982C95.7538 99.1239 97.0196 97.9712 98.9131 97.5212C99.6974 97.3351 100.495 97.3198 101.295 97.4174C101.437 97.4346 101.58 97.4438 101.721 97.467C101.839 97.4869 101.883 97.5399 101.894 97.66C101.901 97.7432 101.901 97.8275 101.901 97.911C101.901 99.2276 101.901 100.544 101.901 101.86C101.9 101.899 101.9 101.934 101.9 101.97ZM114.799 104.564C114.772 107.135 112.962 109.335 110.45 109.879C109.224 110.146 108.009 110.082 106.822 109.66C105.889 109.328 105.115 108.762 104.488 107.998C103.905 107.287 103.594 106.453 103.44 105.554C103.359 105.058 103.318 104.556 103.32 104.053C103.317 103.214 103.32 102.378 103.32 101.54C103.32 100.428 103.32 99.3153 103.32 98.2024C103.32 97.787 103.322 97.7851 103.733 97.7847C105.069 97.7847 106.404 97.7847 107.739 97.7847C108.15 97.7847 108.152 97.7874 108.152 98.2016C108.152 100.248 108.152 102.294 108.152 104.34C108.149 104.495 108.153 104.651 108.167 104.806C108.221 105.292 108.509 105.555 108.994 105.575C109.03 105.577 109.066 105.577 109.101 105.575C109.61 105.564 109.899 105.304 109.954 104.797C109.968 104.63 109.973 104.463 109.97 104.295C109.97 102.309 109.97 100.323 109.97 98.3366C109.97 98.2173 109.968 98.0971 109.975 97.9781C109.984 97.8324 110.023 97.7985 110.177 97.7874C110.237 97.7828 110.296 97.7836 110.356 97.7836C111.715 97.7836 113.074 97.7836 114.433 97.7836C114.797 97.7836 114.802 97.7882 114.802 98.1368C114.803 100.28 114.82 102.422 114.797 104.563L114.799 104.564Z" fill="white"/>
<path d="M384.809 0.328603C378.627 1.44003 374.821 4.82008 373.276 10.5157C373.068 11.349 372.861 13.2706 372.792 15.2615C372.653 19.2206 373.115 22.0914 374.314 24.5919C376.205 28.5506 380.103 31.1438 385.41 31.9531C387.809 32.3239 394.314 32.0924 396.251 31.5828C399.78 30.6567 402.686 28.6658 404.37 26.0497C406.723 22.3916 407.461 15.4229 406.054 10.0748C404.739 5.02795 400.91 1.60137 395.329 0.443788C392.744 -0.087896 387.416 -0.157312 384.809 0.328603ZM394.589 2.64376C397.865 3.40657 400.679 5.44521 402.062 7.99188C403.24 10.1682 403.723 12.4834 403.723 15.9561C403.723 20.9106 402.685 24.0362 400.217 26.5135C397.819 28.9213 394.727 29.9408 389.792 29.9408C384.879 29.9408 381.742 28.8992 379.297 26.4914C376.921 24.1762 375.721 20.7035 375.721 16.1193C375.721 7.85419 379.343 3.36271 386.909 2.32108C388.938 2.04189 392.629 2.20399 394.589 2.64376H394.589Z" fill="white"/>
<path d="M477.997 0.328531C471.815 1.43996 468.009 4.82001 466.463 10.5156C466.256 11.349 466.048 13.2705 465.979 15.2615C465.841 19.2205 466.302 22.0914 467.502 24.5919C469.393 28.5505 473.291 31.1437 478.598 31.9531C480.996 32.3238 487.501 32.0923 489.439 31.5827C492.968 30.6567 495.874 28.6657 497.558 26.0496C499.911 22.3915 500.649 15.4228 499.242 10.0747C497.926 5.02864 494.097 1.60206 488.515 0.44448C485.932 -0.0879677 480.603 -0.157384 477.997 0.328531ZM487.777 2.64368C491.052 3.4065 493.866 5.44514 495.25 7.9918C496.428 10.1681 496.911 12.4833 496.911 15.956C496.911 20.9105 495.873 24.0362 493.405 26.5134C491.006 28.9213 487.915 29.9396 482.979 29.9396C478.066 29.9396 474.929 28.898 472.484 26.4902C470.108 24.175 468.909 20.7023 468.909 16.1181C468.909 7.85297 472.53 3.3615 480.096 2.31987C482.127 2.04182 485.816 2.20392 487.777 2.64368Z" fill="white"/>
<path d="M147.135 16.0719V31.9309H155.556C160.838 31.9309 164.413 31.8382 165.174 31.6761C168.149 31.051 170.387 29.245 171.356 26.6983C172.094 24.7768 172.14 21.1885 171.425 19.6373C170.572 17.7158 168.334 16.0025 166.12 15.5856C165.705 15.5162 165.36 15.3773 165.36 15.2847C165.36 15.2152 165.936 14.891 166.652 14.5901C168.312 13.8723 170.066 12.2517 170.85 10.7699C171.382 9.75117 171.45 9.31141 171.45 7.50582C171.45 5.88483 171.357 5.19028 170.988 4.38017C170.063 2.3648 168.058 0.953587 165.36 0.444406C164.688 0.305192 160.375 0.212891 155.647 0.212891H147.135L147.135 16.0719ZM163.72 2.55131C166.672 3.0132 168.286 4.42632 168.704 6.88069C169.373 10.932 165.313 14.013 158.462 14.7057L156.824 14.8678V16.5811L159.662 16.7199C165.912 17.0441 168.773 18.8035 169.003 22.5555C169.257 26.3524 167.227 28.8758 163.398 29.5936C162.638 29.7324 159.362 29.8484 155.971 29.8484H149.903V2.29653H156.085C159.476 2.29653 162.912 2.4121 163.72 2.55131Z" fill="white"/>
<path d="M178.736 16.0719V31.9309H181.504V16.6505H202.494V31.9309H205.262V0.212891H202.494V14.5668H181.504V0.212891H178.736V16.0719Z" fill="white"/>
<path d="M212.413 16.0719V31.9309H219.171C222.861 31.9309 228.005 32.0003 230.589 32.093L235.248 32.2318V29.8472H215.181V16.882H234.095V14.7987H215.181V2.29653H235.016V0.212891H212.413V16.0719Z" fill="white"/>
<path d="M242.168 16.1875V32.1624H276.998V0.212891H274.229V29.8484H260.853V0.212891H258.316V29.8484H244.936V0.212891H242.168V16.1875Z" fill="white"/>
<path d="M284.379 16.1875V32.1624H287.147V16.6505H308.137V32.1624H310.905V0.212891H308.137V14.5668H287.147V0.212891H284.379V16.1875Z"/>
<path d="M318.286 16.1875V32.1624H341.122V29.8472H321.054V16.882H339.969V14.7987H321.054V2.29653H340.89V0.212891H318.286V16.1875Z"/>
<path d="M344.351 1.25452V2.29653H355.654V32.1609H358.422V2.29653H369.955V0.212891H344.351V1.25452Z"/>
<path d="M413.088 16.1876V32.1626H415.855V2.52707H422.521C429.971 2.52707 430.802 2.64149 432.439 4.05499C434.146 5.53677 434.909 8.31495 434.215 10.6995C433.269 14.0102 429.325 16.2792 422.705 17.3441L420.906 17.645L421.044 18.3628C421.39 20.0067 421.321 19.9601 422.659 19.7984C425.012 19.5204 429.347 18.2472 431.424 17.2285C434.146 15.8855 435.691 14.5205 436.66 12.5288C437.375 11.0931 437.42 10.8384 437.398 8.66242C437.352 4.10153 435.553 1.64716 431.378 0.558996C430.317 0.281331 428.356 0.211914 421.574 0.211914H413.088V16.1876Z" fill="white"/>
<path d="M443.074 16.1875V32.1624H445.842V2.29805H463.604V0.212891H443.074V16.1875Z"/>
<path d="M506.276 16.21V32.2085L514.764 32.0941C523.668 31.9797 524.682 31.8626 526.851 30.7973C528.327 30.0799 529.85 28.3666 530.496 26.6995C531.234 24.7779 531.28 21.1896 530.565 19.6384C529.711 17.7169 527.474 16.0036 525.259 15.5867C524.844 15.5173 524.499 15.3785 524.499 15.2858C524.499 15.2164 525.076 14.8922 525.791 14.5913C527.452 13.8734 529.205 12.2528 529.989 10.7711C530.521 9.75232 530.589 9.31255 530.589 7.50696C530.589 5.88597 530.497 5.19142 530.127 4.38131C529.204 2.3648 527.197 0.953587 524.497 0.444406C523.828 0.305573 519.514 0.212891 514.786 0.212891H506.274L506.276 16.21ZM522.863 2.55131C525.815 3.01434 527.429 4.42632 527.845 6.88069C528.514 10.932 524.454 14.013 517.603 14.7057L515.966 14.8678V16.5811L518.803 16.7199C525.054 17.0441 527.914 18.8035 528.145 22.5555C528.398 26.3524 526.368 28.8758 522.54 29.5936C521.78 29.7324 518.503 29.8484 515.112 29.8484H509.046V2.29653H515.225C518.616 2.29653 522.053 2.4121 522.863 2.55131Z" fill="white"/>
<path d="M537.877 16.1875V32.1624H544.864C555.798 32.1391 557.828 31.792 560.134 29.523C561.657 28.0413 562.303 26.3745 562.487 23.5959C562.787 19.0572 560.896 15.8633 557.159 14.5668C555.175 13.8494 553.237 13.6408 548.671 13.6408H544.334V15.9098L549.363 16.0025C555.129 16.1169 555.844 16.2801 557.689 17.9477C559.165 19.2902 559.673 20.5637 559.673 23.0177C559.673 25.379 559.165 26.722 557.828 27.9722C556.144 29.5234 555.358 29.6623 547.517 29.803L540.647 29.8934V0.212891H537.879L537.877 16.1875Z" fill="white"/>
<path d="M566.94 16.1875V32.1624H569.708V0.212891H566.94V16.1875Z"/>
<path d="M576.86 16.1875V32.1624H599.696V29.8472H579.628V16.882H598.543V14.7987H579.628V2.29653H599.464V0.212891H576.86V16.1875Z" fill="white"/>
<path d="M187.361 52.8832C181.18 53.9942 177.374 57.3746 175.829 63.0698C175.621 63.9032 175.413 65.8251 175.344 67.8161C175.206 71.7751 175.667 74.646 176.866 77.1461C178.758 81.1052 182.656 83.698 187.962 84.5073C190.361 84.8777 196.866 84.6461 198.804 84.137C202.333 83.2109 205.239 81.2196 206.923 78.6035C209.276 74.9458 210.014 67.977 208.606 62.6289C207.292 57.5817 203.463 54.1552 197.881 52.9976C195.297 52.4663 189.969 52.3969 187.361 52.8832ZM197.142 55.1983C200.417 55.9611 203.231 57.9998 204.615 60.5464C205.793 62.7227 206.276 65.0379 206.276 68.5106C206.276 73.4651 205.238 76.5904 202.77 79.0677C200.371 81.4755 197.28 82.4942 192.344 82.4942C187.431 82.4942 184.294 81.4526 181.849 79.0448C179.473 76.7296 178.273 73.2565 178.273 68.6727C178.273 60.4076 181.895 55.9161 189.461 54.8741C191.492 54.5964 195.182 54.7585 197.143 55.1983H197.142Z" fill="white"/>
<path d="M147.135 68.7423V84.7168H149.903V52.7673H147.135V68.7423Z"/>
<path d="M166.811 53.3697C165.127 54.203 162.912 56.657 161.183 59.6206C158.691 63.8573 155.508 66.6587 153.203 66.6587C152.465 66.6587 152.443 66.6816 152.443 67.5615V68.4414L153.804 68.7191C156.594 69.2748 158.44 71.2658 164.806 80.6656L167.551 84.694L169.35 84.7169C170.388 84.7169 171.126 84.6242 171.126 84.4854C171.126 84.2077 164.991 75.4563 162.845 72.6781C160.977 70.247 159.386 68.6733 158.163 68.0711L157.24 67.6309L157.909 67.2606C159.109 66.6587 161.346 63.9961 162.961 61.2873C164.991 57.884 167.067 55.7542 168.82 55.2229C169.489 55.0143 170.55 54.8522 171.172 54.8522H172.28V52.7686H170.132C168.286 52.7674 167.826 52.8601 166.811 53.3697Z" fill="white"/>
<path d="M215.411 68.7423V84.7169H217.948L217.995 71.2196L218.064 57.7219L225.007 71.0331L231.95 84.3687L233.195 84.4381L234.441 84.4843L241.015 71.1025L247.589 57.6979L247.658 71.1025L247.704 84.4843H250.01V52.7663H247.589L240.461 67.0519C234.326 79.3684 233.311 81.2671 233.103 80.8734C232.964 80.6419 229.551 74.2289 225.537 66.6583L218.248 52.883L216.818 52.8136L215.412 52.7441L215.411 68.7423Z" fill="white"/>
<path d="M257.623 68.6263V84.4853H260.161L260.207 71.1035L260.276 57.7218L267.219 71.033L274.162 84.3685L275.408 84.438L276.653 84.4841L283.227 71.1024L289.801 57.6977L289.87 71.1024L289.916 84.4841H292.223V52.7661H289.801L282.672 67.0518C276.537 79.3683 275.522 81.2669 275.314 80.8733C275.176 80.6418 271.762 74.2288 267.748 66.6582L260.46 52.8828L259.029 52.8138L257.623 52.7444V68.6263Z" fill="white"/>
<path d="M297.135 53.0683C297.204 53.2536 300.526 59.0415 304.516 65.9641C311.597 78.2111 311.782 78.5819 311.482 79.1837C310.975 80.156 309.752 81.2674 308.599 81.7998C307.791 82.1702 307.099 82.2629 305.369 82.2629C303.155 82.2629 302.97 82.2167 299.902 80.8516C299.671 80.759 299.602 81.0603 299.602 81.8936C299.602 83.028 299.625 83.0512 300.617 83.5375C302.324 84.3244 303.616 84.5559 306.107 84.4403C308.183 84.3709 308.667 84.255 310.028 83.6298C311.943 82.727 313.442 81.222 314.48 79.1616C314.918 78.305 317.71 72.2162 320.708 65.5949C323.73 58.9965 326.29 53.3936 326.405 53.161C326.589 52.7673 326.497 52.7444 325.067 52.8139L323.522 52.8833L318.586 63.996C315.888 70.1081 313.603 75.2941 313.488 75.5489C313.35 75.8731 311.873 73.4653 306.66 64.3664L299.994 52.7673H298.519C297.366 52.7673 297.043 52.8368 297.135 53.0683Z" fill="white"/>
<path d="M330.742 68.6263V84.4853H333.509V69.2053H354.5V84.4853H357.268V52.7673H354.5V67.1217H333.509V52.7673H330.741L330.742 68.6263Z" fill="white"/>
<path d="M364.65 68.6263V84.4853L366.218 84.4624H367.763L378.143 70.6638L388.523 56.8885L388.592 70.6871L388.638 84.4853H391.406V52.7673H389.861L388.292 52.7906L377.913 66.566L367.533 80.3413L367.464 66.566L367.418 52.7673H364.65V68.6263Z" fill="white"/>
<path d="M398.557 68.6263V84.4853H401.325V52.7673H398.557V68.6263Z"/>
<path d="M418.232 53.3695C416.548 54.2029 414.334 56.6569 412.604 59.6204C410.113 63.8571 406.93 66.6586 404.624 66.6586C403.886 66.6586 403.864 66.6815 403.864 67.5614V68.4413L405.225 68.719C407.993 69.2747 409.676 71.0806 416.158 80.5262L418.88 84.4853H420.725C421.717 84.4853 422.547 84.4391 422.547 84.3709C422.547 84.1855 415.905 74.8089 414.267 72.6791C412.398 70.248 410.809 68.6743 409.585 68.0721L408.662 67.6319L409.331 67.2616C410.53 66.6597 412.767 63.9971 414.382 61.2883C416.412 57.885 418.486 55.7552 420.241 55.2239C420.91 55.0153 421.971 54.8532 422.594 54.8532H423.701V52.7696H421.555C419.708 52.7673 419.247 52.86 418.232 53.3695Z" fill="white"/>
<path d="M432.948 67.7468C428.958 76.012 425.498 83.1428 425.267 83.6287L424.829 84.5086L426.352 84.4392L427.874 84.3698L434.702 69.8305C438.461 61.843 441.621 55.314 441.691 55.314C441.829 55.314 448.933 70.1081 449.464 71.4511C449.556 71.6826 448.149 71.752 442.867 71.752H436.155L435.924 72.3306C435.81 72.6548 435.624 73.1873 435.555 73.4882L435.417 74.0672L443.098 74.1133L450.779 74.1827L453.201 79.3226L455.646 84.4854H458.944L455.761 77.9335C454.008 74.3448 450.548 67.2373 448.057 62.1432L443.559 52.8826L441.875 52.8131L440.191 52.7666L432.948 67.7468Z" fill="white"/>
<path d="M463.373 68.7422V84.7168H489.899V92.5887H492.436V82.4016H488.055V52.7661H485.287V82.4016H466.142V52.7661H463.374L463.373 68.7422Z" fill="white"/>
<path d="M498.434 68.7423V84.7168H501.317L511.812 70.8026L522.307 56.8885L522.376 70.8026L522.422 84.7168H525.19V52.7673H523.645L522.076 52.7906L511.696 66.566L501.317 80.3413L501.247 66.566L501.201 52.7673H498.434V68.7423Z" fill="white"/>
<path d="M532.572 68.7423V84.7168H535.455L545.95 70.8026L556.445 56.8885L556.514 70.8026L556.56 84.7168H559.328V52.7673H557.784L556.216 52.7906L545.836 66.566L535.456 80.3413L535.387 66.566L535.341 52.7673H532.573L532.572 68.7423Z" fill="white"/>
</mask>


<g id="MainForm" width="100%" height="100%">
<path d="M1.69409 49.8366C1.69409 38.9464 1.69409 28.0553 1.69409 17.1636C1.69409 16.1223 1.69409 15.0812 1.69409 14.0402C1.69409 11.6331 2.27245 9.36718 3.45235 7.27553C5.53208 3.5854 8.65985 1.27444 12.7726 0.31672C13.715 0.101642 14.6789 -0.00457109 15.6454 0.000150756C38.3713 0.00218494 61.0973 0.00282062 83.8232 0.0020578C84.3055 0.0020578 84.2735 -0.0452369 84.2735 0.439916C84.2735 9.4755 84.2735 18.5111 84.2735 27.5467C84.2735 28.0425 84.3085 27.999 83.7974 27.999H40.1219C36.7834 27.999 33.4449 27.999 30.1062 27.999C29.5313 27.999 29.5894 27.9323 29.5928 28.5174C29.5985 29.498 29.5168 30.4763 29.5412 31.4573C29.5564 32.0553 29.5438 32.6541 29.5438 33.2525C29.5438 33.3361 29.5412 33.4204 29.5457 33.5039C29.5609 33.7907 29.5917 33.8186 29.8877 33.8228C29.9949 33.8228 30.1024 33.8228 30.2096 33.8228C42.6936 33.8228 55.1774 33.8228 67.6611 33.8228C68.2923 33.8228 68.2194 33.7327 68.2197 34.3666C68.2213 43.3305 68.2213 52.2944 68.2197 61.2583C68.2197 61.8964 68.2798 61.8182 67.671 61.8182C55.1751 61.8182 42.6794 61.819 30.1837 61.8205C29.5028 61.8205 29.5906 61.7255 29.5906 62.4021C29.5883 70.3609 29.5883 78.3196 29.5906 86.2783C29.5906 86.4218 29.5864 86.5652 29.5799 86.7086C29.5769 86.778 29.5282 86.8138 29.4659 86.8253C29.4187 86.8321 29.3711 86.8353 29.3234 86.8348C29.228 86.8367 29.1334 86.8348 29.0373 86.8348H2.24737C2.11627 86.8348 1.98479 86.8348 1.85407 86.8276C1.74539 86.8211 1.70929 86.7826 1.70207 86.6697C1.69409 86.5533 1.69409 86.4336 1.69409 86.313C1.69409 83.6203 1.69409 80.9276 1.69409 78.2348V49.8366Z" fill="white"/>
<path d="M119.209 43.5165C119.209 57.8067 119.209 72.0959 119.209 86.3842C119.209 86.5395 119.209 86.6955 119.2 86.8503C119.195 86.9518 119.144 86.9983 119.04 87.0052C118.936 87.012 118.826 87.0113 118.719 87.0113C114.259 87.0113 109.8 87.0338 105.341 87.0052C101.709 86.9819 98.5284 85.7309 95.8483 83.2674C93.6063 81.2078 92.2049 78.6546 91.5874 75.6697C91.4073 74.7899 91.3182 73.8938 91.3214 72.9956C91.3214 71.4162 91.3381 69.836 91.3161 68.257C91.2974 66.9049 91.2959 65.5532 91.2944 64.2011C91.2944 63.5069 91.3016 62.8132 91.3031 62.119C91.3031 61.6483 91.3164 61.6884 90.8779 61.6884C86.0489 61.6884 81.22 61.6884 76.3912 61.6884H76.1051C75.7547 61.6884 75.7593 61.6983 75.7593 61.3249C75.7593 60.3673 75.7593 59.4098 75.7593 58.4525C75.7593 50.3865 75.7593 42.3204 75.7593 34.2544C75.7593 33.6216 75.6833 33.6926 76.3046 33.6926C81.1214 33.6905 85.9384 33.6905 90.7556 33.6926C90.8627 33.6926 90.9703 33.6949 91.0774 33.6926C91.2936 33.6857 91.3111 33.6678 91.3187 33.4366C91.3229 33.305 91.3187 33.1735 91.3187 33.0419V0.689604C91.3187 0.558017 91.3168 0.42605 91.3187 0.294845C91.3256 0.0183233 91.3354 0.00878809 91.5961 0.00268555C91.6558 0.00268555 91.7154 0.00268555 91.7751 0.00268555H118.745C118.841 0.00268555 118.935 0.00268555 119.031 0.00611823C119.16 0.013365 119.194 0.0442591 119.201 0.183855C119.208 0.339088 119.206 0.494703 119.206 0.650318C119.206 12.8452 119.206 25.0402 119.206 37.2351L119.209 43.5165Z" fill="white"/>
<path d="M91.2402 101.455C91.2402 97.8911 91.2402 94.3272 91.2402 90.7633C91.2402 90.56 91.2451 90.3568 91.2273 90.1531C91.2155 90.0211 91.2056 89.8861 91.0559 89.8258C90.9966 89.8236 90.937 89.8186 90.8773 89.8186C87.3362 89.8186 83.795 89.8186 80.2537 89.8186C79.8558 89.8186 79.8554 89.8216 79.7308 90.2053C78.9171 92.7081 78.1039 95.211 77.2912 97.7138C76.2211 101.001 75.1488 104.287 74.0741 107.573C74.0255 107.721 74.0441 107.913 73.867 108.003C73.753 107.886 73.7355 107.725 73.6884 107.58C72.797 104.851 71.9078 102.121 71.0208 99.3908C70.0361 96.365 69.0521 93.3391 68.0686 90.3133C67.8957 89.7835 67.958 89.8174 67.4093 89.8174C63.9992 89.8174 60.5891 89.8174 57.179 89.8174C57.0601 89.8174 56.9407 89.8216 56.8222 89.8304C56.8011 89.8303 56.7802 89.8343 56.7607 89.8423C56.7411 89.8503 56.7234 89.8621 56.7085 89.8771C56.6935 89.892 56.6817 89.9097 56.6736 89.9293C56.6655 89.9489 56.6614 89.9698 56.6614 89.991C56.6523 90.134 56.6493 90.2778 56.6493 90.4212C56.6493 94.1911 56.6493 97.9609 56.6493 101.731C56.6493 101.969 56.6421 102.208 56.6386 102.446C56.5748 101.999 56.5132 101.555 56.4486 101.111C56.191 99.2936 55.6544 97.5658 54.7964 95.9417C54.2967 94.9962 53.7073 94.111 52.9572 93.3481C51.6078 91.9716 50.0096 91.012 48.1536 90.4876C46.7746 90.1008 45.354 89.8831 43.9227 89.8392C42.5996 89.7934 41.2768 89.7908 39.9605 89.9784C38.9307 90.1256 37.9203 90.3495 36.9406 90.7031C35.2755 91.3053 33.7992 92.2135 32.5904 93.5144C31.3227 94.8787 30.3948 96.4604 29.7704 98.2195C29.7324 98.329 29.7241 98.4552 29.6226 98.5361C29.4596 98.4926 29.4744 98.3336 29.4326 98.2214C29.1832 97.5226 28.8852 96.8423 28.5408 96.1855C28.0281 95.219 27.4194 94.3185 26.6529 93.5373C25.6156 92.4724 24.3715 91.6325 22.9977 91.0696C21.4017 90.417 19.7297 90.123 18.0197 89.9845C17.2107 89.9189 16.4009 89.9048 15.5896 89.9113C14.5165 89.9189 13.4457 90.0147 12.3882 90.1977C10.9442 90.4487 9.56248 90.882 8.2644 91.5708C7.23727 92.11 6.30166 92.809 5.49231 93.6418C4.47809 94.6919 3.70366 95.9108 3.06754 97.2187C2.57354 98.2363 2.28208 99.3233 2.0632 100.43C1.89562 101.276 1.81012 102.132 1.74666 102.992C1.657 104.258 1.70363 105.53 1.88574 106.786C2.00658 107.641 2.21254 108.478 2.44852 109.307C3.11922 111.663 4.4363 113.583 6.35111 115.092C7.41207 115.929 8.60222 116.528 9.87028 116.976C11.6076 117.591 13.4088 117.844 15.2408 117.903C15.9913 117.928 16.7418 117.907 17.4927 117.86C18.3732 117.809 19.2498 117.705 20.1177 117.547C21.2243 117.339 22.2955 117.018 23.3051 116.51C24.5865 115.865 25.7132 115.012 26.7069 113.977C27.8267 112.809 28.705 111.431 29.2909 109.92C29.3433 109.787 29.392 109.653 29.4459 109.519C29.4672 109.467 29.4744 109.388 29.5527 109.397C29.6032 109.402 29.6089 109.465 29.6234 109.508C29.6348 109.543 29.6458 109.577 29.6553 109.611C29.9536 110.655 30.4153 111.624 31.0009 112.533C31.8889 113.91 33.0149 115.045 34.4034 115.917C36.2935 117.104 38.3763 117.69 40.5753 117.917C41.5386 118.017 42.5038 118.01 43.4694 117.996C44.4708 117.977 45.4692 117.878 46.4551 117.701C47.671 117.488 48.8433 117.132 49.9362 116.542C51.905 115.464 53.5463 113.871 54.6862 111.932C55.7228 110.158 56.2773 108.227 56.5072 106.194C56.5395 105.909 56.5649 105.622 56.5946 105.338C56.5977 105.327 56.6027 105.316 56.6094 105.306L56.6474 105.335V110.521C56.6474 112.819 56.6474 115.117 56.6474 117.415C56.6474 117.534 56.6474 117.654 56.6546 117.773C56.6618 117.892 56.7124 117.941 56.8355 117.954C56.9301 117.963 57.0255 117.963 57.1212 117.964C59.577 117.964 62.0332 117.964 64.4898 117.964C64.585 117.965 64.6803 117.962 64.7752 117.953C64.8956 117.94 64.9496 117.889 64.958 117.772C64.9678 117.629 64.9671 117.485 64.9671 117.341C64.9671 111.813 64.9671 106.284 64.9671 100.754C64.9671 100.623 64.9694 100.491 64.9739 100.36C64.9745 100.349 64.9776 100.338 64.9831 100.328C64.9886 100.318 64.9962 100.31 65.0055 100.304C65.0469 100.288 65.0697 100.321 65.0815 100.355C65.1575 100.595 65.2324 100.834 65.3064 101.074C66.3324 104.375 67.3584 107.677 68.3844 110.978C69.059 113.149 69.7337 115.319 70.4083 117.489C70.5603 117.972 70.52 117.963 71.0486 117.963C72.8979 117.963 74.7461 117.963 76.5931 117.963C77.1487 117.963 77.1004 117.971 77.2559 117.472C78.0232 115.006 78.7911 112.539 79.5594 110.071C80.1104 108.301 80.6613 106.53 81.212 104.76C81.6599 103.321 82.1096 101.882 82.561 100.444C82.5834 100.373 82.5747 100.276 82.6997 100.233C82.7016 100.402 82.7054 100.556 82.7054 100.71C82.7054 106.251 82.7054 111.792 82.7054 117.333C82.7054 117.476 82.7054 117.62 82.7142 117.763C82.7225 117.884 82.775 117.938 82.8909 117.951C82.9976 117.96 83.1048 117.964 83.212 117.963C86.1091 117.969 88.3017 117.976 91.1988 117.979L91.2391 116.769C91.2385 111.664 91.2389 106.559 91.2402 101.455ZM29.4767 99.191C29.468 99.2501 29.4531 99.3081 29.4387 99.3664C29.1903 100.389 29.0241 101.43 28.9417 102.48C28.8628 103.482 28.8501 104.489 28.9037 105.493C28.9609 106.485 29.1109 107.469 29.3517 108.433C29.3802 108.547 29.4068 108.666 29.4277 108.783C29.4323 108.801 29.4327 108.819 29.4289 108.837C29.4252 108.854 29.4173 108.871 29.406 108.885C29.3947 108.899 29.3803 108.911 29.3638 108.918C29.3474 108.926 29.3295 108.929 29.3114 108.929C29.2046 108.937 29.0971 108.939 28.9899 108.939C27.7993 108.939 26.6076 108.939 25.4149 108.939H21.9482C21.8528 108.939 21.7582 108.947 21.6624 108.939C21.4561 108.92 21.3367 109.006 21.2471 109.196C20.8108 110.122 20.123 110.817 19.2555 111.344C18.7645 111.642 18.226 111.852 17.6637 111.965C16.4397 112.215 15.2188 112.204 14.0275 111.803C12.7127 111.361 11.6802 110.552 10.9966 109.324C10.3853 108.224 9.97357 107.024 9.7806 105.78C9.65164 104.952 9.6091 104.113 9.65368 103.277C9.72968 101.753 10.0607 100.293 10.7937 98.9419C11.114 98.3507 11.4872 97.7977 11.961 97.3175C12.797 96.4704 13.8162 95.9898 14.9797 95.809C15.8104 95.6801 16.6434 95.6786 17.468 95.8605C19.1381 96.2289 20.3848 97.1626 21.1802 98.6902C21.1924 98.7108 21.2032 98.7322 21.2125 98.7542C21.282 98.9556 21.431 99.0212 21.6305 99.0109C21.7376 99.0048 21.8452 99.0109 21.9523 99.0109H28.9595C29.0906 99.0109 29.2221 99.0109 29.3524 99.0208C29.4547 99.0247 29.4934 99.0834 29.4767 99.191ZM47.9401 108.965C47.5054 110.004 46.8191 110.817 45.8672 111.409C45.3695 111.719 44.8196 111.935 44.2446 112.046C43.1019 112.271 41.9646 112.253 40.8561 111.877C39.5607 111.438 38.5655 110.618 37.9024 109.413C37.2691 108.257 36.8548 106.993 36.6803 105.685C36.5783 104.987 36.5369 104.281 36.5568 103.575C36.6055 102.215 36.8164 100.886 37.3408 99.6208C37.5765 99.0448 37.8736 98.4961 38.2269 97.9842C39.0648 96.7805 40.1908 96.0176 41.6412 95.7621C42.3225 95.6386 43.0189 95.6231 43.705 95.7163C44.4471 95.8201 45.1441 96.0478 45.779 96.449C46.6775 97.0069 47.3884 97.8227 47.8196 98.7909C48.2996 99.8538 48.6499 100.955 48.8152 102.112C48.8532 102.373 48.8912 102.634 48.9095 102.896C48.9326 103.253 48.9353 103.613 48.9475 103.971C48.9585 105.706 48.6104 107.367 47.9401 108.965Z" fill="white"/>
<path d="M116.53 95.6553H92.6699V112.129H116.53V95.6553Z" fill="none"/>
<path d="M119.205 90.171C119.205 90.0753 119.205 89.9803 119.196 89.8842C119.188 89.7831 119.142 89.7374 119.035 89.7317C118.892 89.7229 118.749 89.7229 118.606 89.7233C113.767 89.7408 108.928 89.7084 104.09 89.745C99.93 89.7767 95.7698 89.7515 91.6099 89.7519C91.4906 89.7519 91.3714 89.7526 91.2523 89.7542C91.2166 89.7519 91.1807 89.757 91.1471 89.7693C91.1134 89.7816 91.0826 89.8007 91.0566 89.8255C91.0616 89.9689 91.0707 90.1123 91.0711 90.2557C91.0726 91.1291 91.0726 92.0024 91.0711 92.8756V98.1516C91.0711 99.0369 91.0775 99.9222 91.0692 100.807C91.0612 101.68 91.0764 102.552 91.0749 103.425C91.0665 108.067 91.0653 112.709 91.0711 117.35C91.0711 117.446 91.0684 117.541 91.0753 117.637C91.0897 117.841 91.1395 117.892 91.3337 117.904C91.4287 117.911 91.5237 117.908 91.6194 117.908C96.3276 117.908 101.036 117.908 105.744 117.908C105.839 117.908 105.934 117.919 106.029 117.924C106.854 117.892 107.663 117.754 108.463 117.559C114.543 116.08 119.15 110.64 119.199 103.919C119.232 99.3355 119.205 94.7533 119.205 90.171ZM101.9 101.97C101.898 102.286 101.845 102.262 101.621 102.177C101.4 102.085 101.162 102.041 100.923 102.045C100.421 102.066 100.066 102.304 99.8643 102.766C99.7229 103.09 99.6902 103.436 99.6682 103.783C99.6594 103.926 99.6644 104.07 99.6644 104.213C99.6644 105.865 99.6644 107.516 99.6644 109.168C99.6644 109.633 99.6891 109.616 99.2107 109.618C97.9111 109.622 96.6115 109.618 95.3119 109.618C95.264 109.618 95.2161 109.618 95.1686 109.615C94.8612 109.603 94.8521 109.598 94.8513 109.282C94.849 108.145 94.849 107.008 94.8513 105.871V102.927C94.8513 102.264 94.9345 101.612 95.1416 100.982C95.7538 99.1239 97.0196 97.9712 98.9131 97.5212C99.6974 97.3351 100.495 97.3198 101.295 97.4174C101.437 97.4346 101.58 97.4438 101.721 97.467C101.839 97.4869 101.883 97.5399 101.894 97.66C101.901 97.7432 101.901 97.8275 101.901 97.911C101.901 99.2276 101.901 100.544 101.901 101.86C101.9 101.899 101.9 101.934 101.9 101.97ZM114.799 104.564C114.772 107.135 112.962 109.335 110.45 109.879C109.224 110.146 108.009 110.082 106.822 109.66C105.889 109.328 105.115 108.762 104.488 107.998C103.905 107.287 103.594 106.453 103.44 105.554C103.359 105.058 103.318 104.556 103.32 104.053C103.317 103.214 103.32 102.378 103.32 101.54C103.32 100.428 103.32 99.3153 103.32 98.2024C103.32 97.787 103.322 97.7851 103.733 97.7847C105.069 97.7847 106.404 97.7847 107.739 97.7847C108.15 97.7847 108.152 97.7874 108.152 98.2016C108.152 100.248 108.152 102.294 108.152 104.34C108.149 104.495 108.153 104.651 108.167 104.806C108.221 105.292 108.509 105.555 108.994 105.575C109.03 105.577 109.066 105.577 109.101 105.575C109.61 105.564 109.899 105.304 109.954 104.797C109.968 104.63 109.973 104.463 109.97 104.295C109.97 102.309 109.97 100.323 109.97 98.3366C109.97 98.2173 109.968 98.0971 109.975 97.9781C109.984 97.8324 110.023 97.7985 110.177 97.7874C110.237 97.7828 110.296 97.7836 110.356 97.7836C111.715 97.7836 113.074 97.7836 114.433 97.7836C114.797 97.7836 114.802 97.7882 114.802 98.1368C114.803 100.28 114.82 102.422 114.797 104.563L114.799 104.564Z" fill="white"/>
<path d="M384.809 0.328603C378.627 1.44003 374.821 4.82008 373.276 10.5157C373.068 11.349 372.861 13.2706 372.792 15.2615C372.653 19.2206 373.115 22.0914 374.314 24.5919C376.205 28.5506 380.103 31.1438 385.41 31.9531C387.809 32.3239 394.314 32.0924 396.251 31.5828C399.78 30.6567 402.686 28.6658 404.37 26.0497C406.723 22.3916 407.461 15.4229 406.054 10.0748C404.739 5.02795 400.91 1.60137 395.329 0.443788C392.744 -0.087896 387.416 -0.157312 384.809 0.328603ZM394.589 2.64376C397.865 3.40657 400.679 5.44521 402.062 7.99188C403.24 10.1682 403.723 12.4834 403.723 15.9561C403.723 20.9106 402.685 24.0362 400.217 26.5135C397.819 28.9213 394.727 29.9408 389.792 29.9408C384.879 29.9408 381.742 28.8992 379.297 26.4914C376.921 24.1762 375.721 20.7035 375.721 16.1193C375.721 7.85419 379.343 3.36271 386.909 2.32108C388.938 2.04189 392.629 2.20399 394.589 2.64376H394.589Z" fill="white"/>
<path d="M477.997 0.328531C471.815 1.43996 468.009 4.82001 466.463 10.5156C466.256 11.349 466.048 13.2705 465.979 15.2615C465.841 19.2205 466.302 22.0914 467.502 24.5919C469.393 28.5505 473.291 31.1437 478.598 31.9531C480.996 32.3238 487.501 32.0923 489.439 31.5827C492.968 30.6567 495.874 28.6657 497.558 26.0496C499.911 22.3915 500.649 15.4228 499.242 10.0747C497.926 5.02864 494.097 1.60206 488.515 0.44448C485.932 -0.0879677 480.603 -0.157384 477.997 0.328531ZM487.777 2.64368C491.052 3.4065 493.866 5.44514 495.25 7.9918C496.428 10.1681 496.911 12.4833 496.911 15.956C496.911 20.9105 495.873 24.0362 493.405 26.5134C491.006 28.9213 487.915 29.9396 482.979 29.9396C478.066 29.9396 474.929 28.898 472.484 26.4902C470.108 24.175 468.909 20.7023 468.909 16.1181C468.909 7.85297 472.53 3.3615 480.096 2.31987C482.127 2.04182 485.816 2.20392 487.777 2.64368Z" fill="white"/>
<path d="M147.135 16.0719V31.9309H155.556C160.838 31.9309 164.413 31.8382 165.174 31.6761C168.149 31.051 170.387 29.245 171.356 26.6983C172.094 24.7768 172.14 21.1885 171.425 19.6373C170.572 17.7158 168.334 16.0025 166.12 15.5856C165.705 15.5162 165.36 15.3773 165.36 15.2847C165.36 15.2152 165.936 14.891 166.652 14.5901C168.312 13.8723 170.066 12.2517 170.85 10.7699C171.382 9.75117 171.45 9.31141 171.45 7.50582C171.45 5.88483 171.357 5.19028 170.988 4.38017C170.063 2.3648 168.058 0.953587 165.36 0.444406C164.688 0.305192 160.375 0.212891 155.647 0.212891H147.135L147.135 16.0719ZM163.72 2.55131C166.672 3.0132 168.286 4.42632 168.704 6.88069C169.373 10.932 165.313 14.013 158.462 14.7057L156.824 14.8678V16.5811L159.662 16.7199C165.912 17.0441 168.773 18.8035 169.003 22.5555C169.257 26.3524 167.227 28.8758 163.398 29.5936C162.638 29.7324 159.362 29.8484 155.971 29.8484H149.903V2.29653H156.085C159.476 2.29653 162.912 2.4121 163.72 2.55131Z" fill="white"/>
<path d="M178.736 16.0719V31.9309H181.504V16.6505H202.494V31.9309H205.262V0.212891H202.494V14.5668H181.504V0.212891H178.736V16.0719Z" fill="white"/>
<path d="M212.413 16.0719V31.9309H219.171C222.861 31.9309 228.005 32.0003 230.589 32.093L235.248 32.2318V29.8472H215.181V16.882H234.095V14.7987H215.181V2.29653H235.016V0.212891H212.413V16.0719Z" fill="white"/>
<path d="M242.168 16.1875V32.1624H276.998V0.212891H274.229V29.8484H260.853V0.212891H258.316V29.8484H244.936V0.212891H242.168V16.1875Z" fill="white"/>
<path d="M284.379 16.1875V32.1624H287.147V16.6505H308.137V32.1624H310.905V0.212891H308.137V14.5668H287.147V0.212891H284.379V16.1875Z"/>
<path d="M318.286 16.1875V32.1624H341.122V29.8472H321.054V16.882H339.969V14.7987H321.054V2.29653H340.89V0.212891H318.286V16.1875Z"/>
<path d="M344.351 1.25452V2.29653H355.654V32.1609H358.422V2.29653H369.955V0.212891H344.351V1.25452Z"/>
<path d="M413.088 16.1876V32.1626H415.855V2.52707H422.521C429.971 2.52707 430.802 2.64149 432.439 4.05499C434.146 5.53677 434.909 8.31495 434.215 10.6995C433.269 14.0102 429.325 16.2792 422.705 17.3441L420.906 17.645L421.044 18.3628C421.39 20.0067 421.321 19.9601 422.659 19.7984C425.012 19.5204 429.347 18.2472 431.424 17.2285C434.146 15.8855 435.691 14.5205 436.66 12.5288C437.375 11.0931 437.42 10.8384 437.398 8.66242C437.352 4.10153 435.553 1.64716 431.378 0.558996C430.317 0.281331 428.356 0.211914 421.574 0.211914H413.088V16.1876Z" fill="white"/>
<path d="M443.074 16.1875V32.1624H445.842V2.29805H463.604V0.212891H443.074V16.1875Z"/>
<path d="M506.276 16.21V32.2085L514.764 32.0941C523.668 31.9797 524.682 31.8626 526.851 30.7973C528.327 30.0799 529.85 28.3666 530.496 26.6995C531.234 24.7779 531.28 21.1896 530.565 19.6384C529.711 17.7169 527.474 16.0036 525.259 15.5867C524.844 15.5173 524.499 15.3785 524.499 15.2858C524.499 15.2164 525.076 14.8922 525.791 14.5913C527.452 13.8734 529.205 12.2528 529.989 10.7711C530.521 9.75232 530.589 9.31255 530.589 7.50696C530.589 5.88597 530.497 5.19142 530.127 4.38131C529.204 2.3648 527.197 0.953587 524.497 0.444406C523.828 0.305573 519.514 0.212891 514.786 0.212891H506.274L506.276 16.21ZM522.863 2.55131C525.815 3.01434 527.429 4.42632 527.845 6.88069C528.514 10.932 524.454 14.013 517.603 14.7057L515.966 14.8678V16.5811L518.803 16.7199C525.054 17.0441 527.914 18.8035 528.145 22.5555C528.398 26.3524 526.368 28.8758 522.54 29.5936C521.78 29.7324 518.503 29.8484 515.112 29.8484H509.046V2.29653H515.225C518.616 2.29653 522.053 2.4121 522.863 2.55131Z" fill="white"/>
<path d="M537.877 16.1875V32.1624H544.864C555.798 32.1391 557.828 31.792 560.134 29.523C561.657 28.0413 562.303 26.3745 562.487 23.5959C562.787 19.0572 560.896 15.8633 557.159 14.5668C555.175 13.8494 553.237 13.6408 548.671 13.6408H544.334V15.9098L549.363 16.0025C555.129 16.1169 555.844 16.2801 557.689 17.9477C559.165 19.2902 559.673 20.5637 559.673 23.0177C559.673 25.379 559.165 26.722 557.828 27.9722C556.144 29.5234 555.358 29.6623 547.517 29.803L540.647 29.8934V0.212891H537.879L537.877 16.1875Z" fill="white"/>
<path d="M566.94 16.1875V32.1624H569.708V0.212891H566.94V16.1875Z"/>
<path d="M576.86 16.1875V32.1624H599.696V29.8472H579.628V16.882H598.543V14.7987H579.628V2.29653H599.464V0.212891H576.86V16.1875Z" fill="white"/>
<path d="M187.361 52.8832C181.18 53.9942 177.374 57.3746 175.829 63.0698C175.621 63.9032 175.413 65.8251 175.344 67.8161C175.206 71.7751 175.667 74.646 176.866 77.1461C178.758 81.1052 182.656 83.698 187.962 84.5073C190.361 84.8777 196.866 84.6461 198.804 84.137C202.333 83.2109 205.239 81.2196 206.923 78.6035C209.276 74.9458 210.014 67.977 208.606 62.6289C207.292 57.5817 203.463 54.1552 197.881 52.9976C195.297 52.4663 189.969 52.3969 187.361 52.8832ZM197.142 55.1983C200.417 55.9611 203.231 57.9998 204.615 60.5464C205.793 62.7227 206.276 65.0379 206.276 68.5106C206.276 73.4651 205.238 76.5904 202.77 79.0677C200.371 81.4755 197.28 82.4942 192.344 82.4942C187.431 82.4942 184.294 81.4526 181.849 79.0448C179.473 76.7296 178.273 73.2565 178.273 68.6727C178.273 60.4076 181.895 55.9161 189.461 54.8741C191.492 54.5964 195.182 54.7585 197.143 55.1983H197.142Z" fill="white"/>
<path d="M147.135 68.7423V84.7168H149.903V52.7673H147.135V68.7423Z"/>
<path d="M166.811 53.3697C165.127 54.203 162.912 56.657 161.183 59.6206C158.691 63.8573 155.508 66.6587 153.203 66.6587C152.465 66.6587 152.443 66.6816 152.443 67.5615V68.4414L153.804 68.7191C156.594 69.2748 158.44 71.2658 164.806 80.6656L167.551 84.694L169.35 84.7169C170.388 84.7169 171.126 84.6242 171.126 84.4854C171.126 84.2077 164.991 75.4563 162.845 72.6781C160.977 70.247 159.386 68.6733 158.163 68.0711L157.24 67.6309L157.909 67.2606C159.109 66.6587 161.346 63.9961 162.961 61.2873C164.991 57.884 167.067 55.7542 168.82 55.2229C169.489 55.0143 170.55 54.8522 171.172 54.8522H172.28V52.7686H170.132C168.286 52.7674 167.826 52.8601 166.811 53.3697Z" fill="white"/>
<path d="M215.411 68.7423V84.7169H217.948L217.995 71.2196L218.064 57.7219L225.007 71.0331L231.95 84.3687L233.195 84.4381L234.441 84.4843L241.015 71.1025L247.589 57.6979L247.658 71.1025L247.704 84.4843H250.01V52.7663H247.589L240.461 67.0519C234.326 79.3684 233.311 81.2671 233.103 80.8734C232.964 80.6419 229.551 74.2289 225.537 66.6583L218.248 52.883L216.818 52.8136L215.412 52.7441L215.411 68.7423Z" fill="white"/>
<path d="M257.623 68.6263V84.4853H260.161L260.207 71.1035L260.276 57.7218L267.219 71.033L274.162 84.3685L275.408 84.438L276.653 84.4841L283.227 71.1024L289.801 57.6977L289.87 71.1024L289.916 84.4841H292.223V52.7661H289.801L282.672 67.0518C276.537 79.3683 275.522 81.2669 275.314 80.8733C275.176 80.6418 271.762 74.2288 267.748 66.6582L260.46 52.8828L259.029 52.8138L257.623 52.7444V68.6263Z" fill="white"/>
<path d="M297.135 53.0683C297.204 53.2536 300.526 59.0415 304.516 65.9641C311.597 78.2111 311.782 78.5819 311.482 79.1837C310.975 80.156 309.752 81.2674 308.599 81.7998C307.791 82.1702 307.099 82.2629 305.369 82.2629C303.155 82.2629 302.97 82.2167 299.902 80.8516C299.671 80.759 299.602 81.0603 299.602 81.8936C299.602 83.028 299.625 83.0512 300.617 83.5375C302.324 84.3244 303.616 84.5559 306.107 84.4403C308.183 84.3709 308.667 84.255 310.028 83.6298C311.943 82.727 313.442 81.222 314.48 79.1616C314.918 78.305 317.71 72.2162 320.708 65.5949C323.73 58.9965 326.29 53.3936 326.405 53.161C326.589 52.7673 326.497 52.7444 325.067 52.8139L323.522 52.8833L318.586 63.996C315.888 70.1081 313.603 75.2941 313.488 75.5489C313.35 75.8731 311.873 73.4653 306.66 64.3664L299.994 52.7673H298.519C297.366 52.7673 297.043 52.8368 297.135 53.0683Z" fill="white"/>
<path d="M330.742 68.6263V84.4853H333.509V69.2053H354.5V84.4853H357.268V52.7673H354.5V67.1217H333.509V52.7673H330.741L330.742 68.6263Z" fill="white"/>
<path d="M364.65 68.6263V84.4853L366.218 84.4624H367.763L378.143 70.6638L388.523 56.8885L388.592 70.6871L388.638 84.4853H391.406V52.7673H389.861L388.292 52.7906L377.913 66.566L367.533 80.3413L367.464 66.566L367.418 52.7673H364.65V68.6263Z" fill="white"/>
<path d="M398.557 68.6263V84.4853H401.325V52.7673H398.557V68.6263Z"/>
<path d="M418.232 53.3695C416.548 54.2029 414.334 56.6569 412.604 59.6204C410.113 63.8571 406.93 66.6586 404.624 66.6586C403.886 66.6586 403.864 66.6815 403.864 67.5614V68.4413L405.225 68.719C407.993 69.2747 409.676 71.0806 416.158 80.5262L418.88 84.4853H420.725C421.717 84.4853 422.547 84.4391 422.547 84.3709C422.547 84.1855 415.905 74.8089 414.267 72.6791C412.398 70.248 410.809 68.6743 409.585 68.0721L408.662 67.6319L409.331 67.2616C410.53 66.6597 412.767 63.9971 414.382 61.2883C416.412 57.885 418.486 55.7552 420.241 55.2239C420.91 55.0153 421.971 54.8532 422.594 54.8532H423.701V52.7696H421.555C419.708 52.7673 419.247 52.86 418.232 53.3695Z" fill="white"/>
<path d="M432.948 67.7468C428.958 76.012 425.498 83.1428 425.267 83.6287L424.829 84.5086L426.352 84.4392L427.874 84.3698L434.702 69.8305C438.461 61.843 441.621 55.314 441.691 55.314C441.829 55.314 448.933 70.1081 449.464 71.4511C449.556 71.6826 448.149 71.752 442.867 71.752H436.155L435.924 72.3306C435.81 72.6548 435.624 73.1873 435.555 73.4882L435.417 74.0672L443.098 74.1133L450.779 74.1827L453.201 79.3226L455.646 84.4854H458.944L455.761 77.9335C454.008 74.3448 450.548 67.2373 448.057 62.1432L443.559 52.8826L441.875 52.8131L440.191 52.7666L432.948 67.7468Z" fill="white"/>
<path d="M463.373 68.7422V84.7168H489.899V92.5887H492.436V82.4016H488.055V52.7661H485.287V82.4016H466.142V52.7661H463.374L463.373 68.7422Z" fill="white"/>
<path d="M498.434 68.7423V84.7168H501.317L511.812 70.8026L522.307 56.8885L522.376 70.8026L522.422 84.7168H525.19V52.7673H523.645L522.076 52.7906L511.696 66.566L501.317 80.3413L501.247 66.566L501.201 52.7673H498.434V68.7423Z" fill="white"/>
<path d="M532.572 68.7423V84.7168H535.455L545.95 70.8026L556.445 56.8885L556.514 70.8026L556.56 84.7168H559.328V52.7673H557.784L556.216 52.7906L545.836 66.566L535.456 80.3413L535.387 66.566L535.341 52.7673H532.573L532.572 68.7423Z" fill="white"/>
</g>

</svg>
