<svg width="48" height="48" viewBox="0 0 48 48" fill="none" xmlns="http://www.w3.org/2000/svg">
<g clip-path="url(#clip0_132_17)">
<path d="M8 16V12C8 10.9391 8.42143 9.92172 9.17157 9.17157C9.92172 8.42143 10.9391 8 12 8H16" stroke="#6372FF" stroke-width="3" stroke-linecap="round" stroke-linejoin="round"/>
<path d="M8 32V36C8 37.0609 8.42143 38.0783 9.17157 38.8284C9.92172 39.5786 10.9391 40 12 40H16" stroke="#6372FF" stroke-width="3" stroke-linecap="round" stroke-linejoin="round"/>
<path d="M32 8H36C37.0609 8 38.0783 8.42143 38.8284 9.17157C39.5786 9.92172 40 10.9391 40 12V16" stroke="#6372FF" stroke-width="3" stroke-linecap="round" stroke-linejoin="round"/>
<path d="M32 40H36C37.0609 40 38.0783 39.5786 38.8284 38.8284C39.5786 38.0783 40 37.0609 40 36V32" stroke="#6372FF" stroke-width="3" stroke-linecap="round" stroke-linejoin="round"/>
<path d="M30 22H18C16.8954 22 16 22.8954 16 24V30C16 31.1046 16.8954 32 18 32H30C31.1046 32 32 31.1046 32 30V24C32 22.8954 31.1046 22 30 22Z" stroke="#6372FF" stroke-width="3" stroke-linecap="round" stroke-linejoin="round"/>
<path d="M20 22V18C20 16.9391 20.4214 15.9217 21.1716 15.1716C21.9217 14.4214 22.9391 14 24 14C25.0609 14 26.0783 14.4214 26.8284 15.1716C27.5786 15.9217 28 16.9391 28 18V22" stroke="#6372FF" stroke-width="3" stroke-linecap="round" stroke-linejoin="round"/>
</g>
<defs>
<clipPath id="clip0_132_17">
<rect width="48" height="48" fill="white"/>
</clipPath>
</defs>
</svg>
