<svg width="48" height="48" viewBox="0 0 48 48" fill="none" xmlns="http://www.w3.org/2000/svg">
<path d="M18 14H12C10.9391 14 9.92172 14.4214 9.17157 15.1716C8.42143 15.9217 8 16.9391 8 18V36C8 37.0609 8.42143 38.0783 9.17157 38.8284C9.92172 39.5786 10.9391 40 12 40H30C31.0609 40 32.0783 39.5786 32.8284 38.8284C33.5786 38.0783 34 37.0609 34 36V30" stroke="black" stroke-width="3" stroke-linecap="round" stroke-linejoin="round"/>
<path d="M18 30H24L41 13C41.7956 12.2043 42.2426 11.1252 42.2426 10C42.2426 8.87478 41.7956 7.79565 41 7C40.2044 6.20435 39.1252 5.75736 38 5.75736C36.8748 5.75736 35.7956 6.20435 35 7L18 24V30Z" stroke="black" stroke-width="3" stroke-linecap="round" stroke-linejoin="round"/>
<path d="M32 10L38 16" stroke="black" stroke-width="3" stroke-linecap="round" stroke-linejoin="round"/>
</svg>
