<svg width="48" height="48" viewBox="0 0 48 48" fill="none" xmlns="http://www.w3.org/2000/svg">
<path d="M12 38C15.3137 38 18 35.3137 18 32C18 28.6863 15.3137 26 12 26C8.68629 26 6 28.6863 6 32C6 35.3137 8.68629 38 12 38Z" stroke="#6372FF" stroke-width="3" stroke-linecap="round" stroke-linejoin="round"/>
<path d="M32 42C34.2091 42 36 40.2091 36 38C36 35.7909 34.2091 34 32 34C29.7909 34 28 35.7909 28 38C28 40.2091 29.7909 42 32 42Z" stroke="#6372FF" stroke-width="3" stroke-linecap="round" stroke-linejoin="round"/>
<path d="M29 24C33.9706 24 38 19.9706 38 15C38 10.0294 33.9706 6 29 6C24.0294 6 20 10.0294 20 15C20 19.9706 24.0294 24 29 24Z" stroke="#6372FF" stroke-width="3" stroke-linecap="round" stroke-linejoin="round"/>
</svg>
